<?xml version="1.0" encoding="utf-8"?>
<!-- Generator: Adobe Illustrator 23.1.0, SVG Export Plug-In . SVG Version: 6.00 Build 0)  -->
<svg version="1.1" id="Layer_1" xmlns="http://www.w3.org/2000/svg" xmlns:xlink="http://www.w3.org/1999/xlink" x="0px" y="0px"
	 viewBox="0 0 1024 500" style="enable-background:new 0 0 1024 500;" xml:space="preserve">
<style type="text/css">
	.st0{fill:#FFFFFF;}
	.st1{stroke:#000000;stroke-miterlimit:10;}
</style>
<path class="st0" d="M254,109.5c1,1.1,2,2.1,3,3.2c-1.5,3.9-2.3,8.2-4.5,11.7c-14,22.5-28.7,44.6-42.4,67.3
	c-13.4,22.2-26.2,44.8-38.4,67.7c-1.9,3.6-1.2,12,1.3,13.7c5.3,3.6,10.8,0.2,14.7-5.3c4.3-6,8.8-12.1,14.2-17.1
	c21.8-20.6,44.2-40.6,66-61.1c22.3-21,43.6-43,66.5-63.2c20.6-18.1,42.8-34.5,64.4-51.4c5.1-4,10.7-7.4,16.4-10.6
	c6.9-3.8,11.1-1.3,10.4,6.5c-0.5,5.5-1.7,11.1-3.6,16.3c-15,39.9-29.6,79.9-52.2,116.6c-15.8,25.7-27.8,53.9-43.2,79.9
	c-15.8,26.6-26.8,55-36.8,84c-2.3,6.5-2.8,14.2-2,21.1c0.4,3.5,4.9,8.5,8.3,9.3c3.5,0.9,8.3-2.2,12-4.4c0.6-0.4-1.2-7.3-2-7.3
	c-9.8-0.2-8.7-7.2-7.1-12.5c5.4-18.1,9.9-36.8,18.2-53.6c15.5-31.6,33.6-61.9,50.3-92.9c13.5-25,26.8-50.1,39.8-75.4
	c7.6-14.8,15.2-29.8,21.4-45.3c4.7-11.7,8-24.1,10.5-36.5c2.3-11.7-6.4-22.4-15.5-20.1c-6.4,1.6-12.9,4.6-18.2,8.4
	c-10,7.2-19.2,15.3-28.7,23.3c-20.5,17.3-41.3,34.3-61.4,52.2c-33.7,30-66.8,60.7-100.4,90.9c-5.9,5.3-12.6,9.7-19,14.6
	c6.4-16.5,13.5-32,22.5-46.3c11.4-18,24.7-34.8,36.7-52.4c5.4-7.9,10.4-16.3,14-25.1c1.7-4.2,1.3-10.7-1-14.5
	c-1.4-2.3-8.9-3.1-12.4-1.6c-11.2,4.9-22.5,10.2-32.6,17.1c-31.4,21.6-60.8,45.5-86.2,74.2c-4.5,5.1-10,9.2-15,13.8
	c3.3-8.2,8.2-14.9,13-21.5c26-35.7,53.1-70.7,73-110.5c4.1-8.2,7.7-17.6,1.6-24.2c-3.8-4.2-13.6-5.1-20.3-4.2
	c-8.3,1.1-16.6,4.7-24,8.9C138.9,68,111.8,82.9,86.2,100c-20,13.3-38.3,29.4-56.7,44.9c-7.2,6.1-13.1,13.9-18.8,21.6
	c-1.6,2.1-0.3,6.5-0.3,9.8c3.4,0,8.1,1.3,10.1-0.4c5.1-4.3,9-9.9,13.4-15.1c3.3-4,6.1-8.6,9.9-11.9c17.8-15.3,35.3-31,53.9-45.2
	C123,84.6,148.6,66,178.5,54.8c5.3-2,11.8-0.9,17.8-1.2c-0.1,6.2-0.1,12.4-0.3,18.6c0,0.6-0.3,1.2-0.6,1.8
	c-11.8,20.6-22.1,42.2-35.6,61.5c-23.3,33.3-48.8,65.1-72.9,97.9c-7,9.4-12.9,19.6-18.6,29.9c-1.4,2.5,0.3,6.8,0.6,10.3
	c3.6-0.7,7.4-1.1,10.9-2.2c1.2-0.4,1.9-2.4,2.9-3.5c19.3-22.9,38.2-46.3,58.1-68.7c23.9-27,49.9-51.7,80.8-70.8
	C232.2,121.8,243.1,115.7,254,109.5z"/>
<path class="st0" d="M917.5,173.2c0.8,0.5,1.6,1,2.4,1.5c-0.8,5.6-1.4,11.2-2.5,16.7c-2.9,14.7,1.8,20.3,16.9,19.6
	c2.8-0.1,5.5-0.7,8.2-1.3c28.1-6,50-23.7,73.3-38.7c1.2-0.7,1.4-2.8,3.1-6.5c-4.2,1.7-6.4,2.2-8.3,3.4c-10.7,6.3-20.9,13.4-32,18.8
	c-12.7,6.2-26.1,11-39.5,15.9c-7.1,2.6-10.5-1.5-11-8.3c-0.2-2.4,0.8-5,0.5-7.4c-0.8-6.4,0.1-15.3-3.7-18.7
	c-6.5-5.7-14.5-0.2-21.2,3.7c-1.3,0.8-2.7,1.5-3.9,2.5c-6.1,4.6-12.2,9.2-20.2,15.3c2.1-4.1,3-6,4-7.9c6.8-12.8,13.9-25.4,20.2-38.4
	c1.5-3.1,0.7-7.7-0.3-11.2c-0.3-1-6.1-2.1-7.2-0.9c-2.3,2.3-3.9,5.9-4.4,9.2c-1.8,11.7-4.6,22.8-16.3,28.3
	c-28.8,13.6-57.6,27.2-86.8,39.9c-7.4,3.2-16.2,4.3-24.4,4.2c-8.7-0.1-11.2-5.9-6.7-13.2c14.9-24.2,34.8-42.4,61.8-52.2
	c3.4-1.2,7.3-1,11-1.5c0.4,0.8,0.8,1.6,1.2,2.4c-1.7,2.7-3,5.8-5.2,8c-12.5,12.8-28,20.1-45.2,24.2c-6.7,1.6-13.2,3.5-12.9,15.5
	c8.9-2.7,17.2-3.9,24.2-7.5c10.7-5.4,20.8-12.1,30.8-18.8c5.6-3.7,11-8.1,15.4-13.1c2.5-2.8,4.5-8.2,3.5-11.2
	c-1.1-3.2-6-6.2-9.7-7.1c-4.3-1-9.2,0.1-13.7,1.1c-20,4.1-34.4,17.5-49.1,30.2c-9.7,8.4-19.8,16.7-23.5,30.3
	c-4.8,17.7,4.7,28.7,22.5,25c2.1-0.4,4.3-0.9,6.3-1.7c20.5-8.3,41.2-16.4,61.5-25.3c8.7-3.8,16.7-9.4,25.1-13.9
	c3.6-1.9,7.5-3.3,11.2-4.9c0.6,0.7,1.2,1.4,1.8,2.1c-6.2,9.8-12.9,19.3-18.4,29.5c-1.8,3.3-0.5,8.3-0.6,12.6c3.4-1.5,7.4-2.3,10-4.7
	c12.4-11.5,24.3-23.7,36.7-35.2C906.9,179.3,912.5,176.6,917.5,173.2z"/>
<path class="st0" d="M667.5,221.2c-1.2-0.6-2.4-1.3-3.5-1.9c1.6-7.1,2.6-14.4,5.1-21.1c3.9-10.7,9.4-20.8,13-31.5
	c1.2-3.6-1.1-8.4-1.8-12.6c-3.5,2.4-9.3,4.2-10.1,7.3c-5.2,19.3-9.8,38.8-13.6,58.5c-0.8,4.1,1.8,12.4,3.9,12.8
	c4.7,0.9,10.2-1.9,15.2-3.5c1.3-0.4,2.4-1.8,3.5-2.9c20.8-20.2,42-40.1,62.4-60.6c12.6-12.7,24.2-26.3,36.1-39.6
	c2.1-2.4,3.2-5.7,4.8-8.7c-0.7-0.5-1.5-1-2.2-1.5C745.7,154.2,706.4,187.5,667.5,221.2z"/>
<path class="st1" d="M254,109.5c-10.8,6.3-21.8,12.3-32.4,18.9c-30.8,19.1-56.9,43.8-80.8,70.8c-19.9,22.4-38.8,45.7-58.1,68.7
	c-1,1.2-1.7,3.2-2.9,3.5c-3.5,1.1-7.2,1.5-10.9,2.2c-0.3-3.5-2-7.7-0.6-10.3c5.6-10.3,11.6-20.5,18.6-29.9
	c24.2-32.7,49.6-64.5,72.9-97.9c13.5-19.4,23.9-40.9,35.6-61.5c0.3-0.5,0.6-1.2,0.6-1.8c0.1-6.2,0.2-12.4,0.3-18.6
	c-6,0.3-12.5-0.8-17.8,1.2C148.6,66,123,84.6,97.9,103.7c-18.7,14.2-36.2,29.9-53.9,45.2c-3.9,3.3-6.6,8-9.9,11.9
	c-4.3,5.2-8.3,10.8-13.4,15.1c-2,1.7-6.6,0.3-10.1,0.4c0-3.3-1.3-7.6,0.3-9.8c5.7-7.6,11.6-15.5,18.8-21.6
	C48,129.4,66.2,113.3,86.2,100c25.6-17.1,52.7-32,79.4-47.2c7.4-4.2,15.7-7.7,24-8.9c6.7-0.9,16.5,0,20.3,4.2
	c6,6.7,2.4,16.1-1.6,24.2c-19.9,39.8-46.9,74.8-73,110.5c-4.8,6.6-9.7,13.3-13,21.5c5-4.6,10.5-8.8,15-13.8
	c25.4-28.7,54.8-52.6,86.2-74.2c10.1-6.9,21.3-12.2,32.6-17.1c3.5-1.5,11-0.7,12.4,1.6c2.3,3.7,2.7,10.3,1,14.5
	c-3.6,8.8-8.6,17.2-14,25.1c-12,17.6-25.3,34.4-36.7,52.4c-9.1,14.2-16.1,29.7-22.5,46.3c6.3-4.8,13.1-9.2,19-14.6
	c33.5-30.2,66.7-60.9,100.4-90.9c20-17.9,40.8-34.9,61.4-52.2c9.4-7.9,18.7-16.1,28.7-23.3c5.4-3.9,11.8-6.8,18.2-8.4
	c9.1-2.3,17.8,8.4,15.5,20.1c-2.4,12.4-5.8,24.8-10.5,36.5c-6.2,15.5-13.7,30.4-21.4,45.3c-13,25.3-26.3,50.4-39.8,75.4
	c-16.7,31-34.8,61.3-50.3,92.9c-8.3,16.8-12.7,35.6-18.2,53.6c-1.6,5.3-2.6,12.3,7.1,12.5c0.8,0,2.6,6.9,2,7.3
	c-3.7,2.2-8.5,5.2-12,4.4c-3.5-0.8-7.9-5.8-8.3-9.3c-0.7-6.9-0.2-14.5,2-21.1c10-28.9,21-57.4,36.8-84c15.4-26,27.4-54.2,43.2-79.9
	c22.6-36.7,37.2-76.7,52.2-116.6c1.9-5.2,3.1-10.8,3.6-16.3c0.7-7.8-3.5-10.3-10.4-6.5c-5.7,3.1-11.3,6.6-16.4,10.6
	c-21.7,16.9-43.8,33.3-64.4,51.4c-22.9,20.2-44.2,42.3-66.5,63.2c-21.9,20.5-44.2,40.6-66,61.1c-5.4,5-9.9,11.1-14.2,17.1
	c-3.9,5.5-9.4,8.9-14.7,5.3c-2.5-1.7-3.2-10.1-1.3-13.7c12.2-22.9,25-45.5,38.4-67.7c13.7-22.7,28.4-44.8,42.4-67.3
	c2.2-3.5,3-7.8,4.5-11.7C256,111.6,255,110.5,254,109.5z"/>
<path class="st1" d="M917.5,173.2c-5,3.3-10.6,6.1-15,10.1c-12.5,11.5-24.3,23.7-36.7,35.2c-2.6,2.4-6.6,3.1-10,4.7
	c0.1-4.2-1.2-9.2,0.6-12.6c5.5-10.2,12.2-19.7,18.4-29.5c-0.6-0.7-1.2-1.4-1.8-2.1c-3.8,1.6-7.6,3-11.2,4.9
	c-8.4,4.5-16.4,10.1-25.1,13.9c-20.3,8.9-41,16.9-61.5,25.3c-2,0.8-4.2,1.2-6.3,1.7c-17.8,3.7-27.3-7.3-22.5-25
	c3.7-13.6,13.8-21.9,23.5-30.3c14.7-12.7,29.1-26.1,49.1-30.2c4.5-0.9,9.4-2,13.7-1.1c3.7,0.8,8.6,3.9,9.7,7.1c1.1,3-1,8.4-3.5,11.2
	c-4.4,5-9.8,9.4-15.4,13.1c-10,6.7-20.1,13.4-30.8,18.8c-7.1,3.6-15.3,4.8-24.2,7.5c-0.3-11.9,6.2-13.8,12.9-15.5
	c17.2-4.2,32.7-11.4,45.2-24.2c2.2-2.2,3.5-5.3,5.2-8c-0.4-0.8-0.8-1.6-1.2-2.4c-3.7,0.5-7.6,0.3-11,1.5c-27,9.8-47,28-61.8,52.2
	c-4.5,7.3-2,13.2,6.7,13.2c8.2,0.1,17-1,24.4-4.2c29.2-12.7,58-26.3,86.8-39.9c11.7-5.5,14.5-16.7,16.3-28.3
	c0.5-3.3,2.1-6.9,4.4-9.2c1.1-1.1,6.9-0.1,7.2,0.9c1,3.6,1.8,8.2,0.3,11.2c-6.3,13-13.4,25.7-20.2,38.4c-1,1.9-1.9,3.8-4,7.9
	c8-6.1,14.1-10.7,20.2-15.3c1.2-0.9,2.6-1.7,3.9-2.5c6.7-4,14.8-9.4,21.2-3.7c3.8,3.4,2.8,12.2,3.7,18.7c0.3,2.4-0.6,4.9-0.5,7.4
	c0.5,6.8,3.9,10.9,11,8.3c13.3-4.9,26.7-9.8,39.5-15.9c11.1-5.4,21.3-12.5,32-18.8c1.9-1.1,4.2-1.7,8.3-3.4c-1.7,3.6-2,5.7-3.1,6.5
	c-23.3,15-45.2,32.7-73.3,38.7c-2.7,0.6-5.5,1.2-8.2,1.3c-15.1,0.7-19.8-4.9-16.9-19.6c1.1-5.5,1.7-11.1,2.5-16.7
	C919.2,174.2,918.3,173.7,917.5,173.2z"/>
<path d="M559.7,163.6c-29.6-6.3-53.9,2.4-77.6,5.1c2.2,6.5,6.3,12.4,5.5,17.6c-0.9,5.7-5.6,11.2-9.7,15.9
	c-12.1,13.8-27.1,23.3-44.2,29.7c-2.9,1.1-5.9,2.2-8.9,2.5c-8.9,0.9-19.5,1.3-22.7-7.8c-1.7-4.7,3.8-13.7,8.4-18.5
	c9.3-9.7,20.3-18,30.6-26.8c2.2-1.9,4.5-3.7,8.7-7.1c-6.4,0.3-10.4,1.1-14.1,0.5c-2.6-0.5-4.9-3-7.3-4.5c2.3-2.2,4.2-5.2,6.9-6.4
	c2.3-1,5.4-0.1,8.2,0c11.6,0.4,23.6,3.3,33.7-5.5c0.8-0.7,2.3-0.9,3.5-1c20-1.6,39.9-3.2,59.9-4.5c3.9-0.3,8.2,0.4,11.9,1.7
	c5.1,1.8,9,2,13.2-2.2c1.7-1.7,5.9-0.7,9-0.9c0.2,3.1,1.6,6.9,0.3,9.3c-2.6,4.9-6.7,8.8-9.9,13.4c-3.4,5-6.4,10.3-9.6,15.4
	c0.6,0.6,1.2,1.2,1.8,1.8c2.1-1.4,4.1-2.8,6.2-4.3c20.9-15.4,40.7-32.4,65.4-41.8c6.6-2.5,13.6-4.7,20.6-5.2c3.4-0.3,9.5,3.1,10,5.7
	c0.9,4.1-1.5,9.2-3.4,13.5c-0.4,0.8-5.7,0.5-7.6-0.8c-2-1.4-2.6-4.7-3.9-7.6c-16.4,0.8-29.6,9.1-42.8,17.6
	C575.7,185,554.7,207,535.4,231c-1,1.2-1.7,2.8-3,3.5c-2.5,1.3-5.3,2.1-7.9,3.1c-0.8-3-3.1-6.8-2-8.9c4.9-9.6,11-18.5,16.3-27.9
	C545.6,189.2,552,177.4,559.7,163.6z M422.6,225.8c21.2-3.7,38.8-16.4,52.8-34.7c0.7-1,1.7-2.3,1.5-3.3c-0.7-3.6-0.7-8.8-3-10.3
	c-2.7-1.8-8.3-1.8-11.3-0.2c-8.4,4.6-16.4,9.9-23.8,15.9c-9,7.2-20,12.5-24.2,24.8C412.3,224.5,414.2,226.5,422.6,225.8z"/>
<path class="st1" d="M667.5,221.2c38.9-33.7,78.2-67,112.9-105.4c0.7,0.5,1.5,1,2.2,1.5c-1.6,2.9-2.7,6.2-4.8,8.7
	c-11.9,13.4-23.5,27-36.1,39.6c-20.4,20.6-41.6,40.5-62.4,60.6c-1.1,1.1-2.2,2.5-3.5,2.9c-5.1,1.6-10.5,4.4-15.2,3.5
	c-2.1-0.4-4.7-8.7-3.9-12.8c3.8-19.6,8.3-39.2,13.6-58.5c0.8-3.1,6.6-4.9,10.1-7.3c0.7,4.2,3,9,1.8,12.6c-3.7,10.7-9.1,20.8-13,31.5
	c-2.5,6.7-3.4,14.1-5.1,21.1C665.2,220,666.4,220.6,667.5,221.2z"/>
<g>
	<g>
		<path d="M698,349.5c-0.9,3.1-2.5,7.9-3.5,10.1c-1.6,0.4-6.8,1.6-11.5,1.6c-16.9,0-23.8-10.8-23.8-20.8c0-13,9.9-21.8,25-21.8
			c5.5,0,10.3,1.3,11.9,1.5c0.3,2.9,0.8,7.6,1.2,10.3l-2.5,0.4c-1.3-4.9-3.2-7.2-6.5-8.5c-1.5-0.6-3.8-0.9-5.5-0.9
			c-9.1,0-13.7,7.6-13.7,17.4c0,11.5,5.9,19.2,14.5,19.2c5.3,0,8.8-2.8,12.2-9.7L698,349.5z"/>
		<path d="M724.9,318.7c11.6,0,21.1,8.5,21.1,20.8c0,13.4-9.5,21.8-21.4,21.8c-12.5,0-21.6-9.2-21.6-21.3
			C702.9,329.3,710.6,318.7,724.9,318.7z M723.9,321.4c-6.4,0-11.1,6.3-11.1,17.4c0,10.6,4.2,19.7,12.7,19.7c6,0,10.6-5.8,10.6-17.2
			C736.1,328.8,731.2,321.4,723.9,321.4z"/>
		<path d="M794.8,321.9c-3.8,0.5-5,1.3-5.2,4.1c-0.2,2.4-0.4,4.6-0.4,10v25h-3.5l-26.1-31.3v14.2c0,5.5,0.1,7.9,0.3,9.7
			c0.2,2.8,1.6,4.2,6.2,4.5v2.3h-15.5V358c3.6-0.3,5.1-1.3,5.5-4.2c0.3-2.3,0.4-4.5,0.4-10v-14.9c0-2.1-0.1-3.4-1.3-5.1
			c-1.1-1.6-2.6-1.8-5.3-2v-2.3h12.2l23.9,27.8V336c0-5.5-0.1-7.5-0.3-9.8c-0.2-2.7-1.2-4-6.4-4.3v-2.3h15.5V321.9z"/>
		<path d="M821.6,329.9c-1.3-4-3-8.6-8.8-8.6c-3.6,0-6,2.6-6,6.1c0,3.4,2.3,5.5,7.8,8.3c6.7,3.3,11,6.6,11,12.8
			c0,7.4-6.1,12.8-15.1,12.8c-4,0-7.6-1.1-10.5-1.9c-0.4-1.4-1.4-8-1.9-10.9l2.4-0.6c1.3,3.9,4.8,10.8,10.9,10.8
			c3.8,0,6.1-2.4,6.1-6.4c0-3.6-2.3-5.8-7.5-8.6c-6.5-3.5-10.8-6.6-10.8-13.2c0-6.6,5.1-11.8,14.5-11.8c4.3,0,7.6,0.9,9,1.1
			c0.3,2.3,0.7,5.6,1.2,9.5L821.6,329.9z"/>
		<path d="M873.1,321.9c-4,0.4-5.1,1.6-5.3,3.8c-0.2,1.9-0.3,4-0.3,8.4v8.2c0,5.4-0.9,10.8-4.5,14.6c-2.9,3-7.3,4.3-11.8,4.3
			c-4.1,0-8.3-0.9-11.2-3.3c-3.6-2.8-5.4-6.6-5.4-13.6v-15.9c0-5.8-0.6-6.2-5.3-6.6v-2.3h19.4v2.3c-4.7,0.4-5.3,0.9-5.3,6.6v16.7
			c0,7,3.4,11.7,10.2,11.7c7.5,0,10.7-5.5,10.7-14.9v-7.8c0-4.3-0.2-6.6-0.3-8.5c-0.2-2.9-2-3.5-6.4-3.8v-2.3h15.5V321.9z"/>
		<path d="M909.1,349.3c-0.5,2.7-2.3,9.3-2.8,11h-31.1V358c5.5-0.4,6-0.8,6-6.1V328c0-5.3-0.6-5.8-5.3-6.1v-2.3h19.6v2.3
			c-4.9,0.4-5.5,0.9-5.5,6.1v24.3c0,3.4,0.1,5,3.6,5.1c0.1,0.1,3,0.1,3.3,0.1c3.6,0,4.5-0.8,6-2.4c1.2-1.3,2.8-4,4-6.5L909.1,349.3z
			"/>
		<path d="M947.1,330.4c-0.7-2.9-2.1-5.3-2.7-6.1c-1.1-1.3-1.6-1.8-5.3-1.8h-4v29.5c0,5.3,0.6,5.6,6.2,6.1v2.3h-20.8V358
			c5.3-0.4,5.9-0.8,5.9-6.1v-29.5h-3.8c-3.5,0-4.5,0.6-5.7,2.1c-0.9,1.2-1.8,3.4-2.6,6h-2.4c0.4-4.6,0.9-9.5,1-12.5h1.9
			c0.9,1.4,1.7,1.6,3.6,1.6h25.1c1.7,0,2.6-0.4,3.6-1.6h1.8c0.1,2.6,0.3,8.2,0.6,12.2L947.1,330.4z"/>
		<path d="M977,329.9c-1.3-4-3-8.6-8.8-8.6c-3.6,0-6,2.6-6,6.1c0,3.4,2.3,5.5,7.8,8.3c6.7,3.3,11,6.6,11,12.8
			c0,7.4-6.1,12.8-15.1,12.8c-4,0-7.6-1.1-10.5-1.9c-0.4-1.4-1.4-8-1.9-10.9l2.4-0.6c1.3,3.9,4.8,10.8,10.9,10.8
			c3.8,0,6.1-2.4,6.1-6.4c0-3.6-2.3-5.8-7.5-8.6c-6.5-3.5-10.8-6.6-10.8-13.2c0-6.6,5.1-11.8,14.5-11.8c4.3,0,7.6,0.9,9,1.1
			c0.3,2.3,0.7,5.6,1.2,9.5L977,329.9z"/>
	</g>
</g>
</svg>
