<svg id="Layer_1" data-name="Layer 1" xmlns="http://www.w3.org/2000/svg" viewBox="0 0 59.49 59.5"><defs><style>.cls-1{fill:#fff;}.cls-1,.cls-2{fill-rule:evenodd;}.cls-2{fill:#c85103;}</style></defs><title>lacuevogo</title><path class="cls-1" d="M32.38,56.47a24.62,24.62,0,0,1-8.11-1.41,23.28,23.28,0,0,1-7.52-4.34A23.36,23.36,0,0,1,8.57,36.47a23.56,23.56,0,0,1,6.46-21,23.38,23.38,0,0,1,13.08-7A24.21,24.21,0,0,1,53,19.7a23.21,23.21,0,0,1,3.34,9.7A23.82,23.82,0,0,1,50,48.75a23.46,23.46,0,0,1-7,5.2,23.17,23.17,0,0,1-7.8,2.3c-.95.11-1.92.15-2.88.22M55.73,32.6c-.22.42-.43.86-.67,1.27a2.9,2.9,0,0,1-1.84,1.33c-.34.07-.68.1-1,.16l-.5.12c0,.27,0,.5.07.74a15,15,0,0,1,0,3.28,13.65,13.65,0,0,1-1.24,4.29c-.07.16-.21.32,0,.55a11.19,11.19,0,0,0,2,0c.16-.27.33-.54.49-.82a23.35,23.35,0,0,0,2.85-10.26,3.38,3.38,0,0,0-.07-.63,4.25,4.25,0,0,0,.09-.79,24.94,24.94,0,0,0-.48-4.3A23.52,23.52,0,0,0,41.46,10.65,22,22,0,0,0,35,9a.51.51,0,0,0-.57.17c0,.41,0,.89.09,1.37A21,21,0,0,0,36.45,17a18.6,18.6,0,0,0,2.14,3.48c.09.11.16.3.4.18a4.07,4.07,0,0,1,.49-2.15A3.71,3.71,0,0,1,41.16,17a1.53,1.53,0,0,1,.13.32,8.85,8.85,0,0,1,.16.87,2.93,2.93,0,0,1-.65,2.4c-.23.29-.52.54-.77.81l-.35.38c.19.2.34.38.51.54a32.47,32.47,0,0,0,3.44,2.76.78.78,0,0,0,.23.07c0-.57,0-1.12.11-1.67a3,3,0,0,1,.71-1.5,3.06,3.06,0,0,1,1.29-1c.07.09.14.14.16.21.07.31.15.62.2.94a3,3,0,0,1-.57,2.27c-.23.3-.5.56-.75.84l-.45.42c0,.06,0,.09,0,.11a43.53,43.53,0,0,1,4,3.51.32.32,0,0,0,.14.08h.07c.18-.58.33-1.17.56-1.73a2.89,2.89,0,0,1,1.14-1.31,2.84,2.84,0,0,1,1.7-.63,1.48,1.48,0,0,1,0,.34c0,.29-.08.58-.13.87A3,3,0,0,1,50.7,29c-.36.22-.76.38-1.14.57-.14.07-.26.16-.41.25.27.39.53.73.76,1.09s.42.69.6,1,.36.78.51,1.18.29.79.46,1.27a4.92,4.92,0,0,1,1.89-1.54,4.06,4.06,0,0,1,2.36-.21m-27-16a2,2,0,0,0,.18-.26,19.87,19.87,0,0,0,1.67-7.07,1.51,1.51,0,0,0-.09-.33h-.41c-.72.1-1.44.17-2.14.32A23.14,23.14,0,0,0,12.34,20.1,22.77,22.77,0,0,0,9.09,35a23,23,0,0,0,2.71,8.51c.15.27.33.54.49.8a18.32,18.32,0,0,0,2.34,0,.87.87,0,0,0,0-.21l-.24-.59a13.72,13.72,0,0,1-1.16-7.12,3.6,3.6,0,0,0,0-.56,2.39,2.39,0,0,0-.09-.45,4.86,4.86,0,0,1-2.41-.66,3.53,3.53,0,0,1-1.34-2.09.15.15,0,0,1,0-.06.57.57,0,0,1,.22-.07,3.94,3.94,0,0,1,3.38,1.32c.13.15.19.39.47.4a2.39,2.39,0,0,0,.13-.28,11.49,11.49,0,0,1,2-3.91,2.18,2.18,0,0,0,.15-.37c-.27-.11-.49-.2-.7-.31a7.62,7.62,0,0,1-1.11-.64,3.46,3.46,0,0,1-1.27-3.12,1.83,1.83,0,0,1,1.11.3,3.86,3.86,0,0,1,.88.56,4.2,4.2,0,0,1,.73.84,7.39,7.39,0,0,1,.42.95c.15.33.05.73.24,1.08.12-.06.21-.07.25-.13a30.78,30.78,0,0,1,3.83-3.29,1.85,1.85,0,0,0,.24-.25c-.34-.37-.68-.68-.95-1a5.46,5.46,0,0,1-.66-1.09,2.76,2.76,0,0,1-.15-1.34A1.88,1.88,0,0,1,19.09,21,3.59,3.59,0,0,1,21,23.18a4.48,4.48,0,0,1,.13,1.59c0,.12-.08.27.08.35a23.09,23.09,0,0,0,3.54-2.74,1.91,1.91,0,0,0,.55-.65c-.42-.46-.83-.87-1.2-1.33a2.69,2.69,0,0,1-.56-1.72A2.91,2.91,0,0,1,24,17a4,4,0,0,1,2,2.68,8.25,8.25,0,0,1,.07.88,1.16,1.16,0,0,0,.12.31c.16-.17.28-.28.37-.4a18.37,18.37,0,0,0,2-3.28c.09-.19.14-.4.22-.61ZM50.14,33.05c-.62.11-1.2.26-1.78.31a2.52,2.52,0,0,1-1.68-.43,3,3,0,0,1-1.23-1.18c.08-.06.11-.11.15-.13a4,4,0,0,1,3.27-.21c.15.06.3.23.49.07a9.47,9.47,0,0,0-2.8-3.07l-.51.34a10.13,10.13,0,0,1-.89.55,3.44,3.44,0,0,1-3.69-.38,2.81,2.81,0,0,1,1.15-1,4.5,4.5,0,0,1,3-.36,8.69,8.69,0,0,0-1.29-1.08c-.43-.32-.86-.64-1.3-.95a8.43,8.43,0,0,0-1.38-1c-.24.15-.45.32-.68.45a8.78,8.78,0,0,1-1.15.57,3.31,3.31,0,0,1-3.17-.66,3.5,3.5,0,0,1,.24-.3,3.88,3.88,0,0,1,2.94-1.05c.17,0,.36.12.53-.11-.52-.54-1.06-1.05-1.56-1.6s-1-1.19-1.5-1.81l-.95.1A3.27,3.27,0,0,1,33.09,19c-.17-.2-.35-.39-.57-.63-.19.21-.35.37-.5.55a3.3,3.3,0,0,1-3.34,1.28,2.15,2.15,0,0,0-1,0c-.22.29-.44.59-.68.88s-.47.58-.72.85-.56.58-.83.88a4.19,4.19,0,0,0-.8.86,6.08,6.08,0,0,1,2.11.18A3.56,3.56,0,0,1,28.45,25l-.54.32a3.44,3.44,0,0,1-3.72-.25l-.33-.23-.52-.29-3.72,2.8c-.05,0-.06.14-.12.27a4,4,0,0,1,4.14,1.24,4.55,4.55,0,0,1-1.48.7,2.68,2.68,0,0,1-1.95-.13A11.91,11.91,0,0,1,19,28.72l-.52-.31a11,11,0,0,0-2.73,3c0,.05,0,.13,0,.21,1.71-.61,3.1-.52,3.88.26a5.08,5.08,0,0,1-1,.92,2.88,2.88,0,0,1-1.95.6,8.25,8.25,0,0,1-1.19-.21l-.59-.1A9.62,9.62,0,0,0,14,36.57a1.59,1.59,0,0,0,.06.88l.28-.24A3.78,3.78,0,0,1,17.57,36c.13,0,.28,0,.35.2a3.93,3.93,0,0,1-.54,1.11,3.07,3.07,0,0,1-2.15,1.41c-.26,0-.53.05-.8.11A2.74,2.74,0,0,0,14,39c0,.36.07.67.13,1a12.55,12.55,0,0,0,1.32,3.94.77.77,0,0,0,.77.45c.72,0,1.44,0,2.16,0a2.14,2.14,0,0,0,.44-.08.9.9,0,0,0,0-.21q0-.32-.09-.63a14,14,0,0,1,0-4.87A13.79,13.79,0,0,1,34.38,27.39,13.38,13.38,0,0,1,44,33.62a13.6,13.6,0,0,1,2,9.77,2.29,2.29,0,0,0-.08.86,14.17,14.17,0,0,0,3.51,0c.05-.08.12-.16.18-.25A12.48,12.48,0,0,0,51,39.38a2.35,2.35,0,0,0-.05-.5l-1.13-.16a3.28,3.28,0,0,1-2.7-2.64A1.64,1.64,0,0,1,48,36a4.25,4.25,0,0,1,.79.09,3.41,3.41,0,0,1,.83.29,5.92,5.92,0,0,1,.68.42c.24.16.38.44.67.56a7.58,7.58,0,0,0-.82-4.3M44.92,44.36a6,6,0,0,0,.2-.61,12.71,12.71,0,0,0,0-5.49A13,13,0,0,0,33.3,28,12.55,12.55,0,0,0,22,33a12.58,12.58,0,0,0-2.48,10.81,3.2,3.2,0,0,0,.21.55h1.46a1.49,1.49,0,0,0,.32-.08,4.38,4.38,0,0,0-.09-1,10.28,10.28,0,0,1,.13-3.75,11,11,0,0,1,21.62,3.66c-.05.34-.08.68-.13,1.05a1.44,1.44,0,0,0,.34.09h1.5m-5.85,0a6.78,6.78,0,0,0-2.52-7.22,7,7,0,0,0-8.51,0c-2.2,1.7-3.34,5-2.47,7.12.62.12,7.22.17,12.82.09.24,0,.47,0,.68,0m-14.43,0a3.5,3.5,0,0,0,0-.57,7.84,7.84,0,0,1,.06-2.32A7.75,7.75,0,0,1,40,43.63c0,.21,0,.42,0,.65a8.7,8.7,0,0,0,2.15.06,8.61,8.61,0,0,0,.15-4.86,10.24,10.24,0,0,0-19.92-.09,8.68,8.68,0,0,0,.13,5,10.19,10.19,0,0,0,2.13,0M14.58,47.5c.3.35.53.64.79.91.92.92.61.77,1.8.77h31a.87.87,0,0,0,.71-.29L50,47.73a1.2,1.2,0,0,0,.14-.3,1.53,1.53,0,0,0-.35-.08l-34.84,0c-.07,0-.13.05-.33.13m37.23-2.28a3.37,3.37,0,0,0-1.11-.09H13.33a3.39,3.39,0,0,0-.43.07,4.13,4.13,0,0,0,.9,1.29l1,.09h35c1.21,0,1.21,0,1.86-1a3.56,3.56,0,0,0,.16-.36M17.21,50a1.79,1.79,0,0,0,.2.3c.36.29.7.58,1.07.85,1.05.76.8.63,1.91.63H44.85a1.28,1.28,0,0,0,.9-.27c.5-.4,1-.78,1.52-1.17.1-.08.23-.16.17-.32-.85-.12-23-.17-29.58-.07-.18,0-.36,0-.65,0M21,52.64c0,.22.18.25.31.31l2.55,1.18a3.42,3.42,0,0,0,1.48.28H39.27a3.38,3.38,0,0,0,1.19-.14,24.29,24.29,0,0,0,3.07-1.4c.11-.06.24-.11.17-.31H21.16s-.08,0-.12.08M36.21,18.37a4.63,4.63,0,0,0-.16-.44c-.2-.44-.42-.86-.61-1.31a21.37,21.37,0,0,1-1.71-7c0-.23,0-.49-.23-.72a7.64,7.64,0,0,0-2.12.07c-.09.81-.14,1.6-.27,2.39a23.29,23.29,0,0,1-.48,2.35c-.22.8-.51,1.57-.78,2.36s-.67,1.42-.92,2.16l.1.07a.86.86,0,0,0,.23-.06A4,4,0,0,1,32.08,18a2.34,2.34,0,0,0,1,0,4.06,4.06,0,0,1,2.74.29l.37.14M28,55.16a1.23,1.23,0,0,0,.78.28c.87.08,1.75.19,2.63.25a23.19,23.19,0,0,0,4.78-.3c.13,0,.32,0,.36-.23Z" transform="translate(-2.62 -2.5)"/><path class="cls-2" d="M32.32,2.5A29.75,29.75,0,1,0,62.11,32.12,29.75,29.75,0,0,0,32.32,2.5M50,48.75a23.46,23.46,0,0,1-7,5.2,23.17,23.17,0,0,1-7.8,2.3c-.95.11-1.92.15-2.88.22a24.62,24.62,0,0,1-8.11-1.41,23.28,23.28,0,0,1-7.52-4.34A23.36,23.36,0,0,1,8.57,36.47a23.56,23.56,0,0,1,6.46-21,23.38,23.38,0,0,1,13.08-7A24.21,24.21,0,0,1,53,19.7a23.07,23.07,0,0,1,3.34,9.7A23.82,23.82,0,0,1,50,48.75" transform="translate(-2.62 -2.5)"/><path class="cls-2" d="M39.79,23.59c.17,0,.36.12.53-.11-.52-.54-1.06-1.05-1.56-1.6s-1-1.19-1.5-1.81l-.95.1A3.27,3.27,0,0,1,33.09,19c-.17-.2-.35-.39-.57-.63-.19.21-.35.37-.5.55a3.3,3.3,0,0,1-3.34,1.28,2.15,2.15,0,0,0-1,0c-.22.29-.44.59-.68.88s-.47.58-.72.85-.56.58-.83.88a4.19,4.19,0,0,0-.8.86,6.08,6.08,0,0,1,2.11.18A3.56,3.56,0,0,1,28.45,25l-.54.32a3.44,3.44,0,0,1-3.72-.25l-.33-.23-.52-.29-3.72,2.8c-.05,0-.06.14-.12.27a4,4,0,0,1,4.14,1.24,4.55,4.55,0,0,1-1.48.7,2.68,2.68,0,0,1-1.95-.13A11.91,11.91,0,0,1,19,28.72l-.52-.31a11,11,0,0,0-2.73,3c0,.05,0,.13,0,.21,1.71-.61,3.1-.52,3.87.26a4.76,4.76,0,0,1-1,.92,2.88,2.88,0,0,1-1.95.6,8.25,8.25,0,0,1-1.19-.21l-.59-.1A9.62,9.62,0,0,0,14,36.57a1.59,1.59,0,0,0,.06.88l.28-.24A3.78,3.78,0,0,1,17.57,36c.13,0,.28,0,.35.2a3.93,3.93,0,0,1-.54,1.11,3.07,3.07,0,0,1-2.15,1.41c-.26,0-.53.05-.8.11A2.74,2.74,0,0,0,14,39c0,.36.07.67.13,1a12.55,12.55,0,0,0,1.32,3.94.77.77,0,0,0,.77.45c.72,0,1.44,0,2.16,0a2.14,2.14,0,0,0,.44-.08.9.9,0,0,0,0-.21q0-.32-.09-.63a14,14,0,0,1,0-4.87A13.79,13.79,0,0,1,34.38,27.39,13.38,13.38,0,0,1,44,33.62a13.6,13.6,0,0,1,2,9.77,2.29,2.29,0,0,0-.08.86,14.17,14.17,0,0,0,3.51,0c.05-.08.12-.16.18-.25A12.48,12.48,0,0,0,51,39.38a2.35,2.35,0,0,0-.05-.5l-1.13-.16a3.28,3.28,0,0,1-2.7-2.64A1.64,1.64,0,0,1,48,36a4.25,4.25,0,0,1,.79.09,3.41,3.41,0,0,1,.83.29,5.92,5.92,0,0,1,.68.42c.24.16.38.44.67.56a7.58,7.58,0,0,0-.82-4.3c-.62.11-1.2.26-1.78.31a2.52,2.52,0,0,1-1.68-.43,3,3,0,0,1-1.23-1.18c.08-.06.11-.11.15-.13a4,4,0,0,1,3.27-.21c.15.06.3.23.49.07a9.47,9.47,0,0,0-2.8-3.07l-.51.34a10.13,10.13,0,0,1-.89.55,3.44,3.44,0,0,1-3.69-.38,2.81,2.81,0,0,1,1.15-1,4.5,4.5,0,0,1,3-.36,8.69,8.69,0,0,0-1.29-1.08c-.43-.32-.86-.64-1.3-.95a8.43,8.43,0,0,0-1.38-1c-.24.15-.45.32-.68.45a9.32,9.32,0,0,1-1.14.57,3.32,3.32,0,0,1-3.18-.66,3.5,3.5,0,0,1,.24-.3,3.88,3.88,0,0,1,2.94-1.05" transform="translate(-2.62 -2.5)"/><path class="cls-2" d="M14.63,44.34a.87.87,0,0,0,0-.21l-.24-.59a13.72,13.72,0,0,1-1.16-7.12,3.6,3.6,0,0,0,0-.56,2.39,2.39,0,0,0-.09-.45,4.86,4.86,0,0,1-2.41-.66,3.53,3.53,0,0,1-1.34-2.09.15.15,0,0,1,0-.06.63.63,0,0,1,.22-.07,3.94,3.94,0,0,1,3.38,1.32c.13.15.19.39.47.4a1.43,1.43,0,0,0,.13-.28,11.49,11.49,0,0,1,2-3.91,2.18,2.18,0,0,0,.15-.37c-.27-.11-.49-.2-.7-.31a7.62,7.62,0,0,1-1.11-.64,3.46,3.46,0,0,1-1.27-3.12,1.83,1.83,0,0,1,1.11.3,3.86,3.86,0,0,1,.88.56,4.2,4.2,0,0,1,.73.84,7.39,7.39,0,0,1,.42.95c.15.33.05.73.24,1.08.12-.06.21-.07.25-.13a30.16,30.16,0,0,1,3.84-3.29,2.61,2.61,0,0,0,.23-.25c-.34-.37-.68-.68-.95-1a5.46,5.46,0,0,1-.66-1.09,2.76,2.76,0,0,1-.15-1.34A1.88,1.88,0,0,1,19.09,21,3.59,3.59,0,0,1,21,23.18a4.48,4.48,0,0,1,.13,1.59c0,.12-.08.27.08.35a23.09,23.09,0,0,0,3.54-2.74,1.91,1.91,0,0,0,.55-.65c-.42-.46-.83-.87-1.2-1.33a2.69,2.69,0,0,1-.56-1.72A2.91,2.91,0,0,1,24,17a4,4,0,0,1,2,2.68,6.29,6.29,0,0,1,.06.88,1.91,1.91,0,0,0,.13.31,4,4,0,0,0,.37-.41,17.94,17.94,0,0,0,2-3.27c.09-.19.14-.4.22-.61h0a1,1,0,0,0,.17-.24,19.87,19.87,0,0,0,1.67-7.07,1.51,1.51,0,0,0-.09-.33h-.41c-.72.1-1.44.17-2.14.32A23.14,23.14,0,0,0,12.34,20.1,22.77,22.77,0,0,0,9.09,35a23,23,0,0,0,2.71,8.51c.15.27.33.54.49.8a18.32,18.32,0,0,0,2.34,0" transform="translate(-2.62 -2.5)"/><path class="cls-2" d="M55.33,27.52A23.52,23.52,0,0,0,41.46,10.65,22,22,0,0,0,35,9a.51.51,0,0,0-.57.17c0,.41,0,.89.09,1.37A21,21,0,0,0,36.45,17a18.6,18.6,0,0,0,2.14,3.48c.09.11.16.3.4.18a4.05,4.05,0,0,1,.49-2.15A3.71,3.71,0,0,1,41.16,17a1.53,1.53,0,0,1,.13.32,8.85,8.85,0,0,1,.16.87,2.9,2.9,0,0,1-.65,2.4c-.23.29-.52.54-.77.81l-.35.38c.19.2.34.38.51.54a32.47,32.47,0,0,0,3.44,2.76.56.56,0,0,0,.23.07c0-.57,0-1.12.11-1.67a3,3,0,0,1,.71-1.5,3.06,3.06,0,0,1,1.29-1c.07.09.14.14.16.21.07.31.15.62.2.94a3,3,0,0,1-.57,2.27c-.23.3-.5.56-.75.84l-.45.42c0,.06,0,.09,0,.11a43.53,43.53,0,0,1,4,3.51.32.32,0,0,0,.14.08h.07c.18-.58.33-1.17.56-1.73a2.89,2.89,0,0,1,1.14-1.31,2.84,2.84,0,0,1,1.7-.63,1.48,1.48,0,0,1,0,.34c0,.29-.08.58-.13.87A3,3,0,0,1,50.7,29c-.36.22-.76.38-1.14.57-.14.07-.26.16-.41.25.27.39.53.73.76,1.09s.42.69.6,1,.36.78.51,1.18.29.79.46,1.27a4.92,4.92,0,0,1,1.89-1.54,4.14,4.14,0,0,1,2.36-.21,5.16,5.16,0,0,0,.08-.78,24.94,24.94,0,0,0-.48-4.3" transform="translate(-2.62 -2.5)"/><path class="cls-2" d="M43.08,44.27a1.44,1.44,0,0,0,.34.09h1.5a6,6,0,0,0,.2-.61,12.71,12.71,0,0,0,0-5.49A13,13,0,0,0,33.3,28,12.55,12.55,0,0,0,22,33a12.58,12.58,0,0,0-2.48,10.81,3.55,3.55,0,0,0,.21.55h1.46a1.49,1.49,0,0,0,.32-.08,4.38,4.38,0,0,0-.09-1,10.28,10.28,0,0,1,.13-3.75,11,11,0,0,1,21.62,3.66c-.05.34-.08.69-.13,1.05" transform="translate(-2.62 -2.5)"/><path class="cls-2" d="M36.55,37.1a7,7,0,0,0-8.51,0c-2.2,1.7-3.34,5-2.47,7.12.62.12,7.22.17,12.82.09.24,0,.47,0,.68,0a6.78,6.78,0,0,0-2.52-7.22" transform="translate(-2.62 -2.5)"/><path class="cls-2" d="M40,44.28a8.7,8.7,0,0,0,2.15.06,8.61,8.61,0,0,0,.15-4.86,10.24,10.24,0,0,0-19.92-.09,8.68,8.68,0,0,0,.13,5,10.19,10.19,0,0,0,2.13,0,3.5,3.5,0,0,0,0-.57,7.84,7.84,0,0,1,.06-2.32A7.75,7.75,0,0,1,40,43.63c0,.21,0,.42,0,.65" transform="translate(-2.62 -2.5)"/><path class="cls-2" d="M14.91,47.37c-.07,0-.13.05-.33.13.3.35.53.64.79.91.92.92.61.77,1.8.77h31a.87.87,0,0,0,.71-.29L50,47.73a1.2,1.2,0,0,0,.14-.3,1.53,1.53,0,0,0-.35-.08l-34.84,0" transform="translate(-2.62 -2.5)"/><path class="cls-2" d="M50.7,45.13H13.33a3.39,3.39,0,0,0-.43.07,4.13,4.13,0,0,0,.9,1.29l1,.09h35c1.21,0,1.21,0,1.86-1a3.56,3.56,0,0,0,.16-.36,3.37,3.37,0,0,0-1.11-.09" transform="translate(-2.62 -2.5)"/><path class="cls-2" d="M17.86,50c-.18,0-.36,0-.65,0a1.79,1.79,0,0,0,.2.3c.36.29.71.58,1.07.85,1.05.76.8.63,1.91.63H44.85a1.28,1.28,0,0,0,.9-.27c.5-.4,1-.78,1.52-1.17.1-.08.23-.16.17-.32-.85-.12-23-.17-29.58-.07" transform="translate(-2.62 -2.5)"/><path class="cls-2" d="M21.16,52.56s-.08,0-.12.08c0,.22.18.25.31.31l2.55,1.18a3.42,3.42,0,0,0,1.48.28H39.27a3.38,3.38,0,0,0,1.19-.14,24.29,24.29,0,0,0,3.07-1.4c.11-.06.24-.11.18-.31H21.16" transform="translate(-2.62 -2.5)"/><path class="cls-2" d="M28.93,18.19l.1.07a.86.86,0,0,0,.23-.06A4,4,0,0,1,32.08,18a2.34,2.34,0,0,0,1,0,4.06,4.06,0,0,1,2.74.29l.37.14a4.63,4.63,0,0,0-.16-.44c-.2-.44-.42-.86-.61-1.3a21.49,21.49,0,0,1-1.71-7c0-.23,0-.49-.23-.72a7.64,7.64,0,0,0-2.12.07c-.09.81-.14,1.6-.27,2.39a23.29,23.29,0,0,1-.48,2.35c-.22.8-.51,1.57-.78,2.36s-.67,1.42-.92,2.16" transform="translate(-2.62 -2.5)"/><path class="cls-2" d="M55.73,32.62v0h0" transform="translate(-2.62 -2.5)"/><path class="cls-2" d="M53.22,35.2c-.34.07-.68.1-1,.16l-.5.12c0,.27,0,.5.07.74a15,15,0,0,1,0,3.28,13.65,13.65,0,0,1-1.24,4.29c-.07.16-.21.32,0,.55a11.19,11.19,0,0,0,2,0c.16-.27.33-.54.49-.82a23.35,23.35,0,0,0,2.85-10.26,4.2,4.2,0,0,0-.06-.62c-.23.42-.43.84-.67,1.25a2.9,2.9,0,0,1-1.84,1.33" transform="translate(-2.62 -2.5)"/><path class="cls-2" d="M28.81,55.44c.87.08,1.75.19,2.63.25a23.19,23.19,0,0,0,4.78-.3c.13,0,.32,0,.36-.23H28a1.23,1.23,0,0,0,.78.28" transform="translate(-2.62 -2.5)"/></svg>