<svg id="Layer_1" data-name="Layer 1" xmlns="http://www.w3.org/2000/svg" viewBox="0 0 58.76 23.51"><defs><style>.cls-1{fill:#fff;}</style></defs><title>luna</title><path class="cls-1" d="M32.91,15.42a2.85,2.85,0,1,1-2.85,2.85,2.86,2.86,0,0,1,2.85-2.85m0-1.55A4.4,4.4,0,1,0,36,15.16a4.36,4.36,0,0,0-3.11-1.29" transform="translate(-3.51 -13.87)"/><polygon class="cls-1" points="1.81 21.7 1.81 13.08 0 11.3 0 23.51 9.92 23.51 7.98 21.7 1.81 21.7"/><polygon class="cls-1" points="23.89 13.08 23.89 21.7 14.73 21.7 14.73 13.08 12.92 11.3 12.92 23.51 25.71 23.51 25.71 11.3 23.89 13.08"/><polygon class="cls-1" points="38.6 13.51 38.6 19.68 30.66 12.86 30.66 12.85 28.84 11.3 28.84 23.51 30.66 21.15 30.66 15.19 40.42 23.51 40.42 19.76 40.42 11.3 38.6 13.51"/><polygon class="cls-1" points="58.76 23.51 56.58 23.51 51.47 14.67 45.72 23.51 43.55 23.51 50.44 12.9 51.59 11.13 52.62 12.9 58.76 23.51"/></svg>