<svg id="Layer_1" data-name="Layer 1" xmlns="http://www.w3.org/2000/svg" viewBox="0 0 60.75 61.02"><defs><style>.cls-1,.cls-3{fill:#fff;}.cls-1,.cls-2{fill-rule:evenodd;}.cls-2{fill:#253444;}</style></defs><title>mazembuya</title><path class="cls-1" d="M44.89,23.25v6.31A12.92,12.92,0,0,1,34.34,42.27a12.93,12.93,0,0,1-8.93-1.6,12.76,12.76,0,0,1-6.06-8.56,11.3,11.3,0,0,1-.24-2.53V22.27c0-1.82,0-3.64,0-5.45a12.48,12.48,0,0,1,2-6.92,12.64,12.64,0,0,1,8.41-5.7A12.89,12.89,0,0,1,44,12a13.34,13.34,0,0,1,.84,3.33,11.61,11.61,0,0,1,.09,1.55v6.35M20.57,11.65l.06-.14c.13,0,.17-.15.23-.24a11.87,11.87,0,0,1,2-2.14A12,12,0,0,1,30.59,6.2h2.66a10.21,10.21,0,0,1,2,.16,12.2,12.2,0,0,1,7.84,4.85l.23.3s.08,0,.12.05h0a2.12,2.12,0,0,1-.11-.21,12.67,12.67,0,0,0-12.87-7A12.28,12.28,0,0,0,25.65,6a12.62,12.62,0,0,0-4.88,5.18,3.62,3.62,0,0,0-.13.35s-.05.09-.08.14h0Zm13,30.41a1,1,0,0,0,0-.39V24.29a10,10,0,0,1,.16-1.82,10.15,10.15,0,0,1,9.54-8.34H44a1,1,0,0,0,.21,0,3,3,0,0,0-.15-.69,3,3,0,0,0-.29-.78h-.37a9.91,9.91,0,0,0-1.72.15,11.24,11.24,0,0,0-7.4,4.58A11.06,11.06,0,0,0,32.16,24q0,8.86,0,17.74a1.41,1.41,0,0,0,0,.2.86.86,0,0,0,0,.21,6.33,6.33,0,0,0,1.38-.1M19.76,14.12h.5a10.44,10.44,0,0,1,2.09.22,10.13,10.13,0,0,1,7.6,7,10.26,10.26,0,0,1,.42,2.92v17.6l0,.19a3.34,3.34,0,0,0,1.42.07c0-.12,0-.24,0-.37V24a11.08,11.08,0,0,0-.15-1.82,11.42,11.42,0,0,0-11.1-9.59h-.4a4.43,4.43,0,0,0-.43,1.51m-.3,1.82h.45a10.81,10.81,0,0,1,1.89.18,8.53,8.53,0,0,1,6.57,6.37,9.47,9.47,0,0,1,.22,2.19V41.52c0,.06,0,.12,0,.16a3.76,3.76,0,0,0,1.43.29c0-.12,0-.24,0-.37V24.42a9.75,9.75,0,0,0-.14-1.79,9.61,9.61,0,0,0-3.58-6.06,9.72,9.72,0,0,0-6.51-2.14l-.18,0a7,7,0,0,0-.2,1.48M35.4,41.71V24.63A10.19,10.19,0,0,1,35.53,23a8.5,8.5,0,0,1,6.32-6.77A9.48,9.48,0,0,1,44.1,16a1.31,1.31,0,0,0,.4,0,3.8,3.8,0,0,0-.2-1.48l-.19,0a10.39,10.39,0,0,0-2.23.18,9.76,9.76,0,0,0-7.94,9.69v17c0,.15,0,.3,0,.45A1,1,0,0,0,34,42a8.18,8.18,0,0,0,1.42-.3m5.67-3.42a2.85,2.85,0,0,0,.25-.25,12.4,12.4,0,0,0,3.26-8.42c0-1.68,0-3.36,0-5V22.2a.84.84,0,0,0,0-.38,1.25,1.25,0,0,0-.51,0,3.35,3.35,0,0,0-2.9,2.62,4.17,4.17,0,0,0-.07.93V37.84c0,.12,0,.25,0,.45m-18.18,0a1.35,1.35,0,0,0,0-.47q0-6.22,0-12.44c0-.13,0-.26,0-.38a3.13,3.13,0,0,0-.62-1.8,3.29,3.29,0,0,0-2.65-1.38.71.71,0,0,0-.24,0c0,.15,0,.29,0,.42v7.28a12.11,12.11,0,0,0,.18,2.16,12.55,12.55,0,0,0,3,6.25l.3.32m5.37,3.29a1.35,1.35,0,0,0,0-.4V24.64c0-.12,0-.23,0-.35a8.4,8.4,0,0,0-.29-2,8.21,8.21,0,0,0-8.41-6l-.12,0a5.1,5.1,0,0,0,0,1.46,1.08,1.08,0,0,0,.4,0,6.55,6.55,0,0,1,1.47.14,6.9,6.9,0,0,1,5.32,5.21A8.5,8.5,0,0,1,26.82,25v15.8l0,.22a4.58,4.58,0,0,0,1.41.51M44.54,16.3l-.15,0a8.85,8.85,0,0,0-1.92.12,8.21,8.21,0,0,0-6.15,5,8.54,8.54,0,0,0-.6,3.2V41.4a.94.94,0,0,0,0,.16A4.65,4.65,0,0,0,37.19,41V24.81a8,8,0,0,1,.14-1.54,6.89,6.89,0,0,1,5.39-5.34,7.31,7.31,0,0,1,1.47-.13c.13,0,.26,0,.36-.06a6.92,6.92,0,0,0,0-1.44m-1.18-4.05a.87.87,0,0,0-.18-.36A11.94,11.94,0,0,0,36.49,7a12.14,12.14,0,0,0-3.34-.47H30.84a11.83,11.83,0,0,0-2.22.2,12,12,0,0,0-7,4.06A11.48,11.48,0,0,0,20.73,12c0,.07-.11.13-.06.23l.89.08a6.4,6.4,0,0,0,.88.08l.27-.33A10.39,10.39,0,0,1,25.4,9.7a10.25,10.25,0,0,1,5.12-1.57c1,0,2,0,3,0a8,8,0,0,1,2,.26,10.55,10.55,0,0,1,5.93,3.78l.21.26,1.79-.18m1.19,5.9-.18,0a10.11,10.11,0,0,0-1.1,0,6.6,6.6,0,0,0-5.78,6.55V40.43a1.93,1.93,0,0,0,0,.24.74.74,0,0,0,0,.19,1.34,1.34,0,0,0,.24-.09c.32-.17.63-.37,1-.54a.44.44,0,0,0,.25-.48,1.22,1.22,0,0,1,0-.27q0-7.21,0-14.42a6.18,6.18,0,0,1,0-.86,5.2,5.2,0,0,1,2.7-3.91,5.06,5.06,0,0,1,2.44-.65.79.79,0,0,0,.4,0,7.78,7.78,0,0,0,0-1.45m-25.13,0c0,.19,0,.34,0,.5a4,4,0,0,0,0,.49.89.89,0,0,0,.05.48l.3,0c.31,0,.62,0,.93.09a5.26,5.26,0,0,1,4.22,4.05A7.34,7.34,0,0,1,25,25.26V40l.06.08a6.93,6.93,0,0,0,1.29.74s.06,0,.11,0V24.68a6.42,6.42,0,0,0-.19-1.57,6.57,6.57,0,0,0-6.68-5l-.21,0M39.29,39.81l.26-.16c.28-.23.58-.45.85-.7s.34-.24.34-.76V25.42c0-.23,0-.46,0-.68a3.63,3.63,0,0,1,2.78-3.16c.26-.06.52-.07.78-.11l.22,0a4.9,4.9,0,0,0,0-1.46.58.58,0,0,0-.19,0,5.34,5.34,0,0,0-.69.05,4.86,4.86,0,0,0-3.93,2.89A4.92,4.92,0,0,0,39.27,25V39.52c0,.08,0,.16,0,.29M19.45,21.43a.78.78,0,0,0,.34.05,3.6,3.6,0,0,1,3,1.9,3.48,3.48,0,0,1,.45,1.79V38.11c0,.1,0,.2,0,.31a.41.41,0,0,0,.15.36l1.12.92.17.09c0-.13,0-.23,0-.33q0-7.29,0-14.56a5.16,5.16,0,0,0-.06-.79,5,5,0,0,0-5-4.16.66.66,0,0,0-.15,0,5.86,5.86,0,0,0,0,1.45M41.18,12.5a2.11,2.11,0,0,0-.34-.46A10.21,10.21,0,0,0,33,8.42H31.22c-.38,0-.76,0-1.14.05a9.91,9.91,0,0,0-4.42,1.44A10.16,10.16,0,0,0,23,12.2c-.07.09-.17.17-.17.28s0,0,0,0l1.55.45s0,0,.09,0l.23-.22A8.79,8.79,0,0,1,31.15,10h1.76a8.65,8.65,0,0,1,2.21.29,8.89,8.89,0,0,1,4.15,2.43c.07.08.13.19.26.22l1.65-.47m-2,.63a.66.66,0,0,0-.22-.29,8.39,8.39,0,0,0-5.84-2.49c-.69,0-1.38,0-2.07,0a7.61,7.61,0,0,0-1.78.22,8.39,8.39,0,0,0-4.16,2.31,3,3,0,0,0-.21.25,3.41,3.41,0,0,0,.51.25l.52.26.49.25.36-.29a7.06,7.06,0,0,1,4.54-1.65h1.49a6.91,6.91,0,0,1,1.5.18,7,7,0,0,1,3.11,1.55c.09.08.16.18.28.19l1.48-.73m-1.83.94a.93.93,0,0,0-.28-.28,6.71,6.71,0,0,0-4.16-1.52H31.17a6.33,6.33,0,0,0-1.37.16,6.7,6.7,0,0,0-2.93,1.46c-.06,0-.16.1-.14.21L28,15h.09l.29-.2a5.41,5.41,0,0,1,2.87-1c.52,0,1,0,1.56,0a2.31,2.31,0,0,1,.37,0,5.51,5.51,0,0,1,2.64,1,1.32,1.32,0,0,0,.2.12l.45-.35c.14-.1.28-.2.41-.31a2.31,2.31,0,0,0,.45-.32m-7.65,2.65c.27.41.55.79.79,1.2a14.11,14.11,0,0,1,.67,1.28,10.52,10.52,0,0,1,.5,1.32c.15.45.25.92.39,1.43,0-.15.07-.25.09-.34.09-.33.16-.65.25-1A11.72,11.72,0,0,1,34.15,17c.07-.09.17-.17.17-.29l0-.06-.08-.06a3.5,3.5,0,0,0-1.32-.48,8.13,8.13,0,0,0-1.48,0,3.35,3.35,0,0,0-1.44.43l-.3.19m-.22-.25.26-.16a3.69,3.69,0,0,1,1.83-.52h1a3.71,3.71,0,0,1,1.8.51,1.65,1.65,0,0,0,.25.15l.08,0,1-1.07s0,0,0-.06-.15-.16-.25-.23a5,5,0,0,0-2.71-.87H31.3a5,5,0,0,0-2.83,1c-.06,0-.11.1-.17.15l1.13,1.18" transform="translate(-1.63 -2.06)"/><path class="cls-2" d="M46.67,30.06c0-2.28,0-4.56,0-6.83V16.12a12.38,12.38,0,0,0-.39-3.21,13.66,13.66,0,0,0-5-7.68,14.84,14.84,0,0,0-11.69-3,14.59,14.59,0,0,0-5.82,2.24,14,14,0,0,0-6.43,11.86c0,.77,0,1.54,0,2.31V30.25a13,13,0,0,0,.3,2.91,13.7,13.7,0,0,0,4.71,7.72A14.76,14.76,0,0,0,34,44.24a14.57,14.57,0,0,0,5.72-2,14,14,0,0,0,6.93-12.2m-1.78-.5A12.92,12.92,0,0,1,34.34,42.27a12.93,12.93,0,0,1-8.93-1.6,12.76,12.76,0,0,1-6.06-8.56,11.3,11.3,0,0,1-.24-2.53V22.27c0-1.82,0-3.64,0-5.45a12.48,12.48,0,0,1,2-6.92,12.64,12.64,0,0,1,8.41-5.7A12.89,12.89,0,0,1,44,12a13.34,13.34,0,0,1,.84,3.33,11.61,11.61,0,0,1,.09,1.55V29.56" transform="translate(-1.63 -2.06)"/><path class="cls-2" d="M37.17,16.55a10,10,0,0,1,6.15-2.42H44a.86.86,0,0,0,.21,0,3,3,0,0,0-.15-.69,3,3,0,0,0-.29-.78h-.37a9.91,9.91,0,0,0-1.72.15,11.24,11.24,0,0,0-7.4,4.58A11.06,11.06,0,0,0,32.16,24q0,8.86,0,17.74a1.41,1.41,0,0,0,0,.2.86.86,0,0,0,0,.21,6.33,6.33,0,0,0,1.38-.1,1,1,0,0,0,0-.39V24.29a10,10,0,0,1,.16-1.82,9.87,9.87,0,0,1,3.39-5.92" transform="translate(-1.63 -2.06)"/><path class="cls-2" d="M28.56,16a11.19,11.19,0,0,0-8-3.41h-.4a4.43,4.43,0,0,0-.43,1.51h.5a10.44,10.44,0,0,1,2.09.22,10.13,10.13,0,0,1,7.6,7,10.26,10.26,0,0,1,.42,2.92v17.6l0,.19a3.34,3.34,0,0,0,1.42.07c0-.12,0-.24,0-.37V24a11.08,11.08,0,0,0-.15-1.82A11.21,11.21,0,0,0,28.56,16" transform="translate(-1.63 -2.06)"/><path class="cls-2" d="M26.35,16.57a9.72,9.72,0,0,0-6.51-2.14l-.18,0a7,7,0,0,0-.2,1.48h.45a10.81,10.81,0,0,1,1.89.18,8.53,8.53,0,0,1,6.57,6.37,9.47,9.47,0,0,1,.22,2.19V41.52c0,.06,0,.12,0,.16a3.76,3.76,0,0,0,1.43.29c0-.12,0-.24,0-.37V24.42a9.75,9.75,0,0,0-.14-1.79,9.61,9.61,0,0,0-3.58-6.06" transform="translate(-1.63 -2.06)"/><path class="cls-2" d="M41.85,16.21A9.48,9.48,0,0,1,44.1,16a1.31,1.31,0,0,0,.4,0,3.8,3.8,0,0,0-.2-1.48l-.19,0a10.39,10.39,0,0,0-2.23.18,9.76,9.76,0,0,0-7.94,9.69v17c0,.15,0,.3,0,.45A1,1,0,0,0,34,42a8.18,8.18,0,0,0,1.42-.3V24.63A10.19,10.19,0,0,1,35.53,23a8.5,8.5,0,0,1,6.32-6.77" transform="translate(-1.63 -2.06)"/><path class="cls-2" d="M44.58,22.2a.84.84,0,0,0,0-.38,1.25,1.25,0,0,0-.51,0,3.35,3.35,0,0,0-2.9,2.62,4.17,4.17,0,0,0-.07.93V37.84c0,.12,0,.25,0,.45a2.85,2.85,0,0,0,.25-.25,12.4,12.4,0,0,0,3.26-8.42c0-1.68,0-3.36,0-5V22.2" transform="translate(-1.63 -2.06)"/><path class="cls-2" d="M22.94,25.36c0-.13,0-.26,0-.38a3.13,3.13,0,0,0-.62-1.8,3.29,3.29,0,0,0-2.65-1.38.71.71,0,0,0-.24,0c0,.15,0,.29,0,.42v7.28a12.11,12.11,0,0,0,.18,2.16,12.55,12.55,0,0,0,3,6.25l.3.32a1.35,1.35,0,0,0,0-.47q0-6.22,0-12.44" transform="translate(-1.63 -2.06)"/><path class="cls-2" d="M28.29,24.64c0-.12,0-.23,0-.35a8.4,8.4,0,0,0-.29-2,8.21,8.21,0,0,0-8.41-6l-.12,0a5.1,5.1,0,0,0,0,1.46,1.08,1.08,0,0,0,.4,0,6.55,6.55,0,0,1,1.47.14,6.9,6.9,0,0,1,5.32,5.21A8.5,8.5,0,0,1,26.82,25v15.8l0,.22a4.58,4.58,0,0,0,1.41.51,1.35,1.35,0,0,0,0-.4V24.64" transform="translate(-1.63 -2.06)"/><path class="cls-2" d="M42.72,17.93a7.31,7.31,0,0,1,1.47-.13c.13,0,.26,0,.36-.06a6.92,6.92,0,0,0,0-1.44l-.15,0a8.85,8.85,0,0,0-1.92.12,8.21,8.21,0,0,0-6.15,5,8.54,8.54,0,0,0-.6,3.2V41.4a.94.94,0,0,0,0,.16A4.65,4.65,0,0,0,37.19,41V24.81a8,8,0,0,1,.14-1.54,6.89,6.89,0,0,1,5.39-5.34" transform="translate(-1.63 -2.06)"/><path class="cls-2" d="M41.57,12.43l1.79-.18a.87.87,0,0,0-.18-.36A11.94,11.94,0,0,0,36.49,7a12.14,12.14,0,0,0-3.34-.47H30.84a11.83,11.83,0,0,0-2.22.2,12,12,0,0,0-7,4.06A11.48,11.48,0,0,0,20.73,12c0,.07-.11.13-.06.23l.89.08a6.4,6.4,0,0,0,.88.08l.27-.33A10.39,10.39,0,0,1,25.4,9.7a10.25,10.25,0,0,1,5.12-1.57c1,0,2,0,3,0a8,8,0,0,1,2,.26,10.55,10.55,0,0,1,5.93,3.78l.21.26" transform="translate(-1.63 -2.06)"/><path class="cls-2" d="M41.71,20.29a5.06,5.06,0,0,1,2.44-.65.79.79,0,0,0,.4,0,7.78,7.78,0,0,0,0-1.45l-.18,0a10.11,10.11,0,0,0-1.1,0,6.6,6.6,0,0,0-5.78,6.55V40.43a1.93,1.93,0,0,0,0,.24.74.74,0,0,0,0,.19,1.34,1.34,0,0,0,.24-.09c.32-.17.63-.37,1-.54a.44.44,0,0,0,.25-.48,1.22,1.22,0,0,1,0-.27q0-7.21,0-14.42a6.18,6.18,0,0,1,0-.86,5.2,5.2,0,0,1,2.7-3.91" transform="translate(-1.63 -2.06)"/><path class="cls-2" d="M19.63,18.12l-.21,0c0,.19,0,.34,0,.5a4,4,0,0,0,0,.49.89.89,0,0,0,.05.48l.3,0c.31,0,.62,0,.93.09a5.26,5.26,0,0,1,4.22,4.05A7.34,7.34,0,0,1,25,25.26V40l.06.08a6.93,6.93,0,0,0,1.29.74s.06,0,.11,0V24.68a6.42,6.42,0,0,0-.19-1.57,6.57,6.57,0,0,0-6.68-5" transform="translate(-1.63 -2.06)"/><path class="cls-2" d="M44.33,20a5.34,5.34,0,0,0-.69.05,4.86,4.86,0,0,0-3.93,2.89A4.92,4.92,0,0,0,39.27,25V39.52c0,.08,0,.16,0,.29l.26-.16c.28-.23.58-.45.85-.7s.34-.24.34-.76V25.42c0-.23,0-.46,0-.68a3.63,3.63,0,0,1,2.78-3.16c.26-.06.52-.07.78-.11l.22,0a4.9,4.9,0,0,0,0-1.46.58.58,0,0,0-.19,0" transform="translate(-1.63 -2.06)"/><path class="cls-2" d="M24.65,24.11a5,5,0,0,0-5-4.16.66.66,0,0,0-.15,0,5.86,5.86,0,0,0,0,1.45.78.78,0,0,0,.34.05,3.6,3.6,0,0,1,3,1.9,3.48,3.48,0,0,1,.45,1.79V38.11c0,.1,0,.2,0,.31a.41.41,0,0,0,.15.36l1.12.92.17.09c0-.13,0-.23,0-.33q0-7.29,0-14.56a5.16,5.16,0,0,0-.06-.79" transform="translate(-1.63 -2.06)"/><path class="cls-2" d="M39.53,13l1.65-.47a2.11,2.11,0,0,0-.34-.46A10.21,10.21,0,0,0,33,8.42H31.22c-.38,0-.76,0-1.14.05a9.91,9.91,0,0,0-4.42,1.44A10.16,10.16,0,0,0,23,12.2c-.07.09-.17.17-.17.28s0,0,0,0l1.55.45s0,0,.09,0l.23-.22A8.79,8.79,0,0,1,31.15,10h1.76a8.65,8.65,0,0,1,2.21.29,8.89,8.89,0,0,1,4.15,2.43c.07.08.13.19.26.22" transform="translate(-1.63 -2.06)"/><path class="cls-2" d="M20.86,11.27a12.27,12.27,0,0,1,2-2.15A12.08,12.08,0,0,1,30.59,6.2h2.66a10.21,10.21,0,0,1,2,.16,12.2,12.2,0,0,1,7.84,4.85l.23.3s.08,0,.12,0a1.28,1.28,0,0,1-.11-.2,12.67,12.67,0,0,0-12.87-7A12.28,12.28,0,0,0,25.65,6a12.62,12.62,0,0,0-4.88,5.18,2.68,2.68,0,0,0-.13.34c.12,0,.16-.15.22-.24" transform="translate(-1.63 -2.06)"/><polyline class="cls-2" points="19.01 9.45 19 9.45 19.01 9.46 19.01 9.45"/><polygon class="cls-2" points="41.8 9.49 41.8 9.49 41.81 9.5 41.8 9.49"/><path class="cls-2" d="M37.65,13.86l1.48-.73a.66.66,0,0,0-.22-.29,8.39,8.39,0,0,0-5.84-2.49c-.69,0-1.38,0-2.07,0a7.61,7.61,0,0,0-1.78.22,8.39,8.39,0,0,0-4.16,2.31,3,3,0,0,0-.21.25,3.41,3.41,0,0,0,.51.25l.52.26.49.25.36-.29a7.06,7.06,0,0,1,4.54-1.65h1.49a6.91,6.91,0,0,1,1.5.18,7,7,0,0,1,3.11,1.55c.09.08.16.18.28.19" transform="translate(-1.63 -2.06)"/><path class="cls-2" d="M36,15.05l.45-.35c.14-.1.28-.2.41-.31a2.31,2.31,0,0,0,.45-.32.93.93,0,0,0-.28-.28,6.71,6.71,0,0,0-4.16-1.52H31.17a6.17,6.17,0,0,0-1.36.16,6.69,6.69,0,0,0-2.94,1.46c-.06,0-.16.1-.14.21L28,15h.09l.29-.2a5.41,5.41,0,0,1,2.87-1c.52,0,1,0,1.56,0a2.31,2.31,0,0,1,.37,0,5.51,5.51,0,0,1,2.64,1,1.32,1.32,0,0,0,.2.12" transform="translate(-1.63 -2.06)"/><path class="cls-2" d="M34.15,17c.07-.09.17-.17.17-.29l0-.06-.08-.06a3.5,3.5,0,0,0-1.32-.48,8.13,8.13,0,0,0-1.48,0,3.35,3.35,0,0,0-1.44.43l-.3.19c.27.41.55.79.79,1.2a14.11,14.11,0,0,1,.67,1.28,10.52,10.52,0,0,1,.5,1.32c.15.45.25.92.39,1.43,0-.15.07-.25.09-.34.09-.33.16-.65.25-1A11.72,11.72,0,0,1,34.15,17" transform="translate(-1.63 -2.06)"/><path class="cls-2" d="M32.71,14.19H31.3a5,5,0,0,0-2.83,1c-.06,0-.11.1-.17.15l1.13,1.18.26-.16a3.69,3.69,0,0,1,1.83-.52h1a3.71,3.71,0,0,1,1.8.51,1.65,1.65,0,0,0,.25.15l.08,0,1-1.07s0,0,0-.06-.15-.16-.25-.23a5,5,0,0,0-2.71-.87" transform="translate(-1.63 -2.06)"/><path class="cls-1" d="M14.28,53.1a2.43,2.43,0,0,0,0-.27v-4c0-.11,0-.23,0-.34a2.39,2.39,0,0,0-1.64-2.21,2.8,2.8,0,0,0-1.57-.07,3.38,3.38,0,0,0-1.72.95c-.07.07-.12.17-.25.19a1.22,1.22,0,0,1,0-.38V41.9c0-.11,0-.21,0-.31a1.94,1.94,0,0,0-.05-.2l-.33.06-2,.48s0,0,0,0,0,0,0,0a.89.89,0,0,0,.14.13.79.79,0,0,1,.37.76c0,.44,0,.89,0,1.34v7.35a1.85,1.85,0,0,1,0,.41,4.61,4.61,0,0,1-.57,1.33,1.2,1.2,0,0,1-1,.54.94.94,0,0,1-1-.87,2.75,2.75,0,0,1,0-.41V46.86a.93.93,0,0,1,0-.43l.33,0h.69c.06,0,.08,0,.06-.11-.35-.06-.72,0-1.08,0a.69.69,0,0,1,0-.34V44.55a1.7,1.7,0,0,0,0-.22,24.22,24.22,0,0,0-2.37.52s0,0-.05,0,.15.14.22.21a1.05,1.05,0,0,1,.23.29,1.67,1.67,0,0,1,0,.86H2c-.26,0-.26,0-.41.1a1.19,1.19,0,0,0,.41,0H2.5c0,.19,0,.32,0,.46v5.41a3.39,3.39,0,0,0,0,.45,1.56,1.56,0,0,0,.62,1.11,1.89,1.89,0,0,0,.74.36,3.3,3.3,0,0,0,1.5,0A2,2,0,0,0,7,52.93a9.77,9.77,0,0,0,.36-1.08c.24-.8.47-1.61.77-2.39a6.42,6.42,0,0,1,.54-1.12,3.81,3.81,0,0,1,.67-.83,2.14,2.14,0,0,1,1.08-.57,1.59,1.59,0,0,1,1.91,1.25,2.88,2.88,0,0,1,.05.59c0,1.31,0,2.62,0,3.93v.38a.79.79,0,0,1-.38.79.94.94,0,0,0-.1.1c0,.08.09.07.13.07H14.6c.06,0,.14,0,.17-.08l-.09-.09a.75.75,0,0,1-.4-.78" transform="translate(-1.63 -2.06)"/><path class="cls-1" d="M61.47,47.26a3.09,3.09,0,0,0-3.15-1,3.34,3.34,0,0,0-1.81,1.13,4.41,4.41,0,0,0-.88,1.74l-.09.31c-.34,0-.67,0-1,.08l-1,.17c-.32.06-.62.21-1,.26a2.94,2.94,0,0,1,.19-.33l1.8-2.9c0-.08.15-.15.1-.28-.33,0-3.43-.06-5.65,0l-.22,0c-.19.58-.35,1.16-.52,1.75,0,0,0,0,0,.13.09-.11.15-.19.22-.26a4.89,4.89,0,0,1,.74-.77A3.13,3.13,0,0,1,51,46.55c.45,0,.9,0,1.35,0a.46.46,0,0,1,.13,0l-.19.32c-.33.51-.66,1-1,1.54-.46.71-.91,1.43-1.36,2.15A4.32,4.32,0,0,1,49,51.69L47.29,53.1a1.6,1.6,0,0,1-.23.16.39.39,0,0,1-.6-.18,1.1,1.1,0,0,1-.09-.51c0-.3,0-.6,0-.89,0-.83,0-1.66,0-2.49A3.37,3.37,0,0,0,46,47.57a2.18,2.18,0,0,0-1.38-1.17,5.49,5.49,0,0,0-1.8-.22,2.46,2.46,0,0,0-1.26.42,5.65,5.65,0,0,0-1,.92.25.25,0,0,0,0,.09,3.43,3.43,0,0,0,1,.39l.12-.27.27-.56a1.85,1.85,0,0,1,.4-.52,1.15,1.15,0,0,1,.88-.32,1.32,1.32,0,0,1,1,.48,1.07,1.07,0,0,1,0,1.5,2.32,2.32,0,0,1-.44.38A7.06,7.06,0,0,1,43,49l-.87.34a7.44,7.44,0,0,0-.91.41,2.46,2.46,0,0,0-1.33,2.49,2.08,2.08,0,0,0,1.74,1.95A2.32,2.32,0,0,0,43.17,54a3.78,3.78,0,0,0,.9-.69l.34-.33c0,.08.08.14.11.19s.16.34.26.49a1,1,0,0,0,1.43.38,9.1,9.1,0,0,0,1.53-1c.39-.33.77-.66,1.17-1a7.91,7.91,0,0,1,.75-.54A15.83,15.83,0,0,1,52.74,50a8.13,8.13,0,0,1,1.2-.31,15.76,15.76,0,0,1,1.82-.15c1.3,0,2.59.06,3.89.11l2.41.1.29,0c0-.07,0-.11,0-.14a3.62,3.62,0,0,0-.9-2.37m-17,5.32a.3.3,0,0,1-.1.25,2.29,2.29,0,0,1-.88.58,1.06,1.06,0,0,1-1.35-.58,2.63,2.63,0,0,1-.19-.77,3.15,3.15,0,0,1,.28-1.68,2.6,2.6,0,0,1,.88-1l.71-.48.31-.22.33-.29c0,.16,0,.25,0,.34v3.89m16.06-3a1.16,1.16,0,0,1-.18,0H60l-2.13-.12-.25,0a3.13,3.13,0,0,1,.06-.93A4.58,4.58,0,0,1,58,47.24a2.58,2.58,0,0,1,.29-.51,1.13,1.13,0,0,1,1.89.2,3.52,3.52,0,0,1,.15.42,8.83,8.83,0,0,1,.22,2.12.45.45,0,0,1,0,.08" transform="translate(-1.63 -2.06)"/><path class="cls-1" d="M38.64,53.19a1.92,1.92,0,0,0,0-.24V48.53a2.63,2.63,0,0,0-.24-1.1,2,2,0,0,0-1.69-1.25,3.67,3.67,0,0,0-1.79.27,3.87,3.87,0,0,0-1.19.81c-.06.06-.11.16-.23.15l-.13-.23a2,2,0,0,0-1.54-1,3.23,3.23,0,0,0-2.36.67c-.17.13-.31.28-.47.41s-.07.09-.15,0c-.08-.28,0-.59-.08-.89l-.24,0-2.15.5,0,0s0,0,0,.07l.09.06a.79.79,0,0,1,.42.84v5.34a.59.59,0,0,1-.23.45,2.65,2.65,0,0,1-.26.21V54h2.89l.05,0-.06-.08c-.47-.33-.43-.45-.44-.9v-4.9a1.47,1.47,0,0,0,0-.21.45.45,0,0,1,.16-.36,2.27,2.27,0,0,1,1.21-.62,1.22,1.22,0,0,1,1.46.85,2.83,2.83,0,0,1,.1.47,4.61,4.61,0,0,1,0,.52V53c0,.12,0,.23,0,.35a.5.5,0,0,1-.18.36c-.07.07-.16.13-.24.2s-.08,0,0,.11l.09,0h2.73s.07,0,.11,0,0-.07,0-.08c-.52-.37-.45-.5-.45-.92,0-1.41,0-2.81,0-4.21,0-.28,0-.55-.06-.83a2.47,2.47,0,0,0-.06-.29,2.33,2.33,0,0,1,2-.76,1.13,1.13,0,0,1,.91.69,2.23,2.23,0,0,1,.16.56,3.31,3.31,0,0,1,0,.62V53c0,.09,0,.19,0,.28a.7.7,0,0,1-.28.53l-.21.17.06.06h2.83s0,0,.06-.06L39,53.84a.7.7,0,0,1-.32-.65" transform="translate(-1.63 -2.06)"/><path class="cls-1" d="M18.31,46.25a3.22,3.22,0,0,0-2.06,1.46,4.33,4.33,0,0,0-.6,3.63,3.93,3.93,0,0,0,4,2.95,2.85,2.85,0,0,0,2.05-.93l.09-.13a.53.53,0,0,0-.23.09l-.59.35a2.15,2.15,0,0,1-1.19.27,1.91,1.91,0,0,1-1.64-1,2.09,2.09,0,0,1-.19-.4A6.29,6.29,0,0,1,17.53,50a.91.91,0,0,1,0-.21h3.56c.39,0,.78,0,1.2,0a1.87,1.87,0,0,0,0-.21,3.62,3.62,0,0,0-.85-2.25,3.09,3.09,0,0,0-3.19-1.07m2.17,3.37-.16,0H17.67a.3.3,0,0,1-.11,0,.44.44,0,0,1,0-.16,6.85,6.85,0,0,1,.35-2.06,2.35,2.35,0,0,1,.25-.53,1.13,1.13,0,0,1,2,.18,4.24,4.24,0,0,1,.24,1c0,.44.06.87.08,1.31a1,1,0,0,1,0,.23" transform="translate(-1.63 -2.06)"/><path class="cls-1" d="M61.53,53.39l-.56.34a2.18,2.18,0,0,1-1.23.27,1.91,1.91,0,0,1-1.58-.91,2.92,2.92,0,0,1-.32-.72,6.57,6.57,0,0,1-.3-2.07c0-.1,0-.2,0-.31a1.29,1.29,0,0,0-.24-.05c-.57,0-1.13,0-1.73,0a2,2,0,0,0,0,.38,4.65,4.65,0,0,0,.07.75,4,4,0,0,0,4,3.28,2.8,2.8,0,0,0,2.12-1s.08-.06,0-.13l-.22.15" transform="translate(-1.63 -2.06)"/><path class="cls-1" d="M54.65,52.17a3.68,3.68,0,0,1-2.81,1.71c-.54,0-1.08,0-1.62,0a.25.25,0,0,1-.11,0,4.51,4.51,0,0,1,.44-.77l.45-.73.48-.76.47-.76,0,0a.5.5,0,0,0-.13,0l-.88.4a16,16,0,0,0-2.06,1.32,1.37,1.37,0,0,0-.17.17l-.84,1.18a.49.49,0,0,0,0,.17H54a1.05,1.05,0,0,0,.4,0,16.06,16.06,0,0,0,.52-2.19,1.2,1.2,0,0,0-.25.34" transform="translate(-1.63 -2.06)"/><path class="cls-1" d="M9.07,53.06v0c0-1.33,0-2.66,0-4a.78.78,0,0,0,0-.36l-.13.13a3.69,3.69,0,0,0-.46.85q-.15.39-.27.78c-.24.8-.47,1.61-.7,2.41a3.45,3.45,0,0,1-.31.77.64.64,0,0,1-.43.32A1.19,1.19,0,0,0,6.5,54,17.73,17.73,0,0,0,9.59,54l-.12-.07a.79.79,0,0,1-.4-.82" transform="translate(-1.63 -2.06)"/><path class="cls-3" d="M23.21,61.46c0,1-.76,1.52-2.22,1.52H18.11V57.42h2.72c1.39,0,2.1.58,2.1,1.44a1.34,1.34,0,0,1-.73,1.23,1.37,1.37,0,0,1,1,1.37m-3.82-3.07V59.7h1.28c.63,0,1-.22,1-.66s-.34-.65-1-.65Zm2.53,2.94c0-.47-.36-.69-1-.69h-1.5V62h1.5c.67,0,1-.21,1-.68" transform="translate(-1.63 -2.06)"/><rect class="cls-3" x="22.56" y="55.36" width="1.29" height="5.56"/><path class="cls-3" d="M26.36,62.43l.44-1a3.24,3.24,0,0,0,1.83.58c.76,0,1.07-.25,1.07-.59,0-1-3.23-.33-3.23-2.39,0-1,.76-1.74,2.34-1.74a3.73,3.73,0,0,1,1.94.5l-.4,1a3.18,3.18,0,0,0-1.54-.43c-.77,0-1.06.28-1.06.63,0,1,3.23.32,3.23,2.36,0,.93-.77,1.73-2.36,1.73a4,4,0,0,1-2.26-.65" transform="translate(-1.63 -2.06)"/><polygon class="cls-3" points="31.31 56.41 29.53 56.41 29.53 55.36 34.38 55.36 34.38 56.41 32.6 56.41 32.6 60.92 31.31 60.92 31.31 56.41"/><path class="cls-3" d="M40.24,63l-1.07-1.55H38V63H36.7V57.42h2.4c1.49,0,2.42.77,2.42,2a1.81,1.81,0,0,1-1.14,1.75L41.62,63ZM39,58.47H38v1.94H39c.79,0,1.19-.37,1.19-1s-.4-1-1.19-1" transform="translate(-1.63 -2.06)"/><path class="cls-3" d="M42.19,60.2a3,3,0,1,1,3,2.88,2.88,2.88,0,0,1-3-2.88m4.78,0A1.74,1.74,0,1,0,45.23,62,1.7,1.7,0,0,0,47,60.2" transform="translate(-1.63 -2.06)"/></svg>