<svg id="Layer_1" data-name="Layer 1" xmlns="http://www.w3.org/2000/svg" viewBox="0 0 63.92 57.3"><defs><style>.cls-1{fill:#fff;}.cls-1,.cls-2,.cls-3{fill-rule:evenodd;}.cls-2{fill:#253444;}</style></defs><title>maze</title><path class="cls-1" d="M13.33,59.17a2.8,2.8,0,0,0,0-.29V54.35A2.53,2.53,0,0,0,11.6,52,3,3,0,0,0,10,52a3.64,3.64,0,0,0-1.82,1c-.07.08-.12.18-.26.2a1.08,1.08,0,0,1,0-.4V47.38c0-.11,0-.21,0-.32a.91.91,0,0,0,0-.21l-.34.07-2.15.5,0,0s0,0,0,.05a.86.86,0,0,0,.14.13.84.84,0,0,1,.4.8c0,.48,0,.95,0,1.42v7.73a1.54,1.54,0,0,1,0,.43,4.82,4.82,0,0,1-.6,1.4A1.24,1.24,0,0,1,4.1,60,1,1,0,0,1,3,59.06a3.24,3.24,0,0,1,0-.44v-6a1,1,0,0,1,.05-.45l.35,0h.73c.05,0,.08,0,.06-.11-.37-.07-.76,0-1.14,0A.69.69,0,0,1,3,51.59c0-.47,0-.94,0-1.42a1,1,0,0,0,0-.23,24.53,24.53,0,0,0-2.49.55s0,0,0,0,.16.14.22.22a1,1,0,0,1,.25.31,1.72,1.72,0,0,1,0,.9H.44c-.26,0-.26,0-.42.1a.82.82,0,0,0,.43.05l.48,0c0,.19,0,.33,0,.47v5.7c0,.16,0,.32,0,.47A1.65,1.65,0,0,0,1.62,60a2,2,0,0,0,.78.38,3.51,3.51,0,0,0,1.58,0A2.12,2.12,0,0,0,5.62,59c.14-.37.26-.75.38-1.13.24-.85.49-1.7.81-2.52a6.38,6.38,0,0,1,.56-1.18,4.24,4.24,0,0,1,.7-.87,2.31,2.31,0,0,1,1.14-.61,1.69,1.69,0,0,1,2,1.33,4.18,4.18,0,0,1,0,.61v4.14c0,.13,0,.26,0,.4a.84.84,0,0,1-.4.83.57.57,0,0,0-.11.11c0,.08.09.07.14.07h2.76c.06,0,.15,0,.17-.09L13.75,60a.82.82,0,0,1-.42-.83" transform="translate(-0.02 -3.19)"/><path class="cls-1" d="M63,53A3.25,3.25,0,0,0,59.67,52a3.47,3.47,0,0,0-1.91,1.19A4.89,4.89,0,0,0,56.83,55c0,.11,0,.21-.08.32-.36,0-.71.05-1.06.1s-.72.11-1.07.17-.66.22-1,.27l.2-.34,1.9-3c0-.09.16-.17.11-.29-.35,0-3.62-.07-6,0l-.24,0c-.2.61-.37,1.22-.54,1.84,0,0,0,.06,0,.14.1-.11.16-.2.23-.28a6.62,6.62,0,0,1,.78-.81A3.29,3.29,0,0,1,52,52.28c.47,0,.94,0,1.41,0a.6.6,0,0,1,.14,0,3.19,3.19,0,0,1-.2.33l-1,1.62-1.44,2.28a4.46,4.46,0,0,1-1,1.13l-1.83,1.48-.24.17a.41.41,0,0,1-.63-.2,1,1,0,0,1-.1-.53c0-.31,0-.62,0-.94,0-.87,0-1.74,0-2.61a3.75,3.75,0,0,0-.41-1.71,2.3,2.3,0,0,0-1.46-1.23,5.8,5.8,0,0,0-1.9-.23,2.6,2.6,0,0,0-1.32.44,6.24,6.24,0,0,0-1.08,1s0,.06,0,.09a3.82,3.82,0,0,0,1,.41c.05-.09.09-.19.14-.28s.18-.4.28-.59a1.87,1.87,0,0,1,.42-.54,1.23,1.23,0,0,1,.93-.34,1.38,1.38,0,0,1,1,.5,1.13,1.13,0,0,1,0,1.58,2.26,2.26,0,0,1-.47.4,4.63,4.63,0,0,1-.7.36c-.3.13-.61.24-.92.36a10.19,10.19,0,0,0-1,.43,2.61,2.61,0,0,0-1.41,2.62,2.19,2.19,0,0,0,1.83,2.06,2.4,2.4,0,0,0,1.62-.27,3.91,3.91,0,0,0,1-.72L45,59c0,.09.08.15.12.21s.17.35.27.51a1.05,1.05,0,0,0,1.51.39,8.85,8.85,0,0,0,1.61-1c.41-.34.81-.69,1.22-1a7.38,7.38,0,0,1,.8-.58A17.4,17.4,0,0,1,53.79,56a7.87,7.87,0,0,1,1.27-.32A15.22,15.22,0,0,1,57,55.47c1.37-.06,2.73.06,4.1.11l2.54.11.3,0c0-.08,0-.12,0-.15A3.79,3.79,0,0,0,63,53M45.06,58.62a.35.35,0,0,1-.11.26,2.25,2.25,0,0,1-.93.61,1.1,1.1,0,0,1-1.42-.61,2.48,2.48,0,0,1-.2-.8,3.27,3.27,0,0,1,.3-1.77,2.5,2.5,0,0,1,.92-1.09l.75-.51.32-.23.35-.31c0,.17,0,.26,0,.36v3.91a1.08,1.08,0,0,0,0,.18m16.88-3.18-.18,0a2.26,2.26,0,0,1-.37,0l-2.24-.12-.26,0a3.43,3.43,0,0,1,.06-1A5.1,5.1,0,0,1,59.29,53a2.78,2.78,0,0,1,.3-.53,1.19,1.19,0,0,1,2,.21,3.29,3.29,0,0,1,.16.44A9.28,9.28,0,0,1,62,55.35a.29.29,0,0,1,0,.09" transform="translate(-0.02 -3.19)"/><path class="cls-1" d="M39,59.26A2.09,2.09,0,0,0,39,59V54.36a3.1,3.1,0,0,0-.25-1.16,2.1,2.1,0,0,0-1.78-1.31,3.78,3.78,0,0,0-1.88.29,4,4,0,0,0-1.26.85c-.06.06-.11.16-.24.15s-.09-.16-.14-.24a2.08,2.08,0,0,0-1.62-1,3.37,3.37,0,0,0-2.48.71c-.17.13-.33.28-.49.43s-.08.09-.16.05c-.08-.3,0-.62-.08-.94l-.26.05-2.26.52,0,0s0,0,0,.08l.1.06a.83.83,0,0,1,.44.88V59.1c0,.1,0,.2,0,.29a.63.63,0,0,1-.23.48l-.28.22v.07h3s0,0,0,0a.24.24,0,0,0-.06-.08c-.5-.35-.46-.47-.46-1V53.93a1.61,1.61,0,0,0,0-.22.47.47,0,0,1,.17-.38,2.44,2.44,0,0,1,1.27-.66,1.28,1.28,0,0,1,1.53.91,2,2,0,0,1,.11.49,5,5,0,0,1,0,.55v4.46c0,.12,0,.24,0,.36a.6.6,0,0,1-.19.39l-.25.2s-.08.06-.05.12l.1,0H34.2a.56.56,0,0,0,.12,0c0-.05,0-.07,0-.08-.55-.39-.47-.53-.47-1,0-1.47,0-3,0-4.43,0-.29,0-.58-.06-.86a2.44,2.44,0,0,0-.06-.31,2.44,2.44,0,0,1,2-.81,1.21,1.21,0,0,1,1,.74,2.36,2.36,0,0,1,.17.59,3.49,3.49,0,0,1,0,.65c0,1.47,0,3,0,4.43,0,.09,0,.19,0,.29a.69.69,0,0,1-.3.55l-.21.18s0,.07.06.07h3s0,0,.06-.06l-.18-.16a.71.71,0,0,1-.34-.68" transform="translate(-0.02 -3.19)"/><path class="cls-1" d="M17.57,52a3.45,3.45,0,0,0-2.17,1.53,4.63,4.63,0,0,0-.64,3.82,4.14,4.14,0,0,0,4.18,3.11,3,3,0,0,0,2.15-1,1,1,0,0,0,.09-.13.43.43,0,0,0-.23.09l-.62.37a2.21,2.21,0,0,1-1.26.28,2,2,0,0,1-1.72-1,2.74,2.74,0,0,1-.21-.42,6.94,6.94,0,0,1-.4-2.67c0-.07,0-.14.06-.22h3.75c.41,0,.82,0,1.26,0a1.94,1.94,0,0,0,0-.22,3.83,3.83,0,0,0-.89-2.36A3.27,3.27,0,0,0,17.57,52m2.28,3.55-.17,0H16.89a.37.37,0,0,1-.11,0,.5.5,0,0,1,0-.17,7.59,7.59,0,0,1,.36-2.17,2.89,2.89,0,0,1,.27-.56A1.12,1.12,0,0,1,18.55,52a1.1,1.1,0,0,1,1,.76,3.75,3.75,0,0,1,.25,1.09c.05.46.07.92.1,1.37,0,.07,0,.15,0,.25" transform="translate(-0.02 -3.19)"/><path class="cls-1" d="M63,59.47c-.19.12-.39.25-.59.36a2.31,2.31,0,0,1-1.29.29,2,2,0,0,1-1.66-1,2.89,2.89,0,0,1-.34-.76,7.28,7.28,0,0,1-.32-2.18c0-.1,0-.21,0-.33l-.26,0c-.59,0-1.18,0-1.82,0a2.07,2.07,0,0,0,0,.4,5.27,5.27,0,0,0,.07.79A4.17,4.17,0,0,0,61,60.49a3,3,0,0,0,2.23-1s.07-.06,0-.13l-.24.15" transform="translate(-0.02 -3.19)"/><path class="cls-1" d="M55.81,58.19a3.88,3.88,0,0,1-3,1.8,16,16,0,0,1-1.7,0A.25.25,0,0,1,51,60a5,5,0,0,1,.46-.81c.15-.26.32-.51.48-.77l.5-.8.49-.8,0-.05a.5.5,0,0,0-.13,0c-.31.14-.63.27-.93.42a16.22,16.22,0,0,0-2.16,1.39.62.62,0,0,0-.18.18c-.3.41-.6.82-.89,1.24a.56.56,0,0,0-.05.18H55.1a1.16,1.16,0,0,0,.42,0,16.71,16.71,0,0,0,.55-2.31,1.27,1.27,0,0,0-.26.36" transform="translate(-0.02 -3.19)"/><path class="cls-1" d="M7.85,59.13v0l0-4.21a.88.88,0,0,0,0-.38l-.13.14a3.67,3.67,0,0,0-.49.89c-.1.27-.2.54-.28.82-.25.85-.5,1.69-.74,2.54a3.29,3.29,0,0,1-.33.8.63.63,0,0,1-.44.34l-.23.08a17.63,17.63,0,0,0,3.25-.06L8.26,60a.84.84,0,0,1-.41-.86" transform="translate(-0.02 -3.19)"/><path class="cls-1" d="M45.54,25.48c0,2.22,0,4.43,0,6.64a13.36,13.36,0,0,1-.84,4.73A13.59,13.59,0,0,1,34.43,45.5a13.74,13.74,0,0,1-3.39.19,13.13,13.13,0,0,1-6-1.88,13.45,13.45,0,0,1-6.38-9,12,12,0,0,1-.25-2.67V24.45c0-1.91,0-3.82,0-5.74a13.1,13.1,0,0,1,2.14-7.27,13.31,13.31,0,0,1,8.85-6,13.56,13.56,0,0,1,15.15,8.23,13.31,13.31,0,0,1,.89,3.51,12.62,12.62,0,0,1,.09,1.63c0,1.36,0,2.73,0,4.1v2.57m-25.6-12.2.07-.15c.14,0,.17-.16.24-.25a13.16,13.16,0,0,1,2.09-2.26,12.71,12.71,0,0,1,8.15-3.07c.94,0,1.87,0,2.8,0a12.19,12.19,0,0,1,2.09.17,12.9,12.9,0,0,1,8.26,5.1,3.81,3.81,0,0,0,.24.32s.08,0,.12,0h0L43.88,13A13.29,13.29,0,0,0,30.34,5.61a12.54,12.54,0,0,0-5.05,1.72,13.13,13.13,0,0,0-5.13,5.44,2.35,2.35,0,0,0-.14.37s-.05.1-.08.14v0Zm13.7,32a1.11,1.11,0,0,0,0-.4V26.57a10.19,10.19,0,0,1,.16-1.91,10.67,10.67,0,0,1,10-8.77h.76a2.07,2.07,0,0,0,.22,0,2.43,2.43,0,0,0-.16-.73,2.9,2.9,0,0,0-.3-.82,2.54,2.54,0,0,0-.39,0,11,11,0,0,0-1.81.15,11.77,11.77,0,0,0-7.78,4.83,11.59,11.59,0,0,0-2.28,7q0,9.33,0,18.65a1.61,1.61,0,0,0,0,.22c0,.07,0,.14,0,.22a6.45,6.45,0,0,0,1.46-.11M19.1,15.87h.52a10.81,10.81,0,0,1,2.2.23,10.59,10.59,0,0,1,8.44,10.43V45.05a1.2,1.2,0,0,0,0,.2,3.56,3.56,0,0,0,1.5.08c0-.13,0-.26,0-.39V26.28a11.1,11.1,0,0,0-.15-1.91A12,12,0,0,0,20,14.28a2.87,2.87,0,0,0-.42,0,4.62,4.62,0,0,0-.45,1.58m-.32,1.92h.48a11.06,11.06,0,0,1,2,.19,9,9,0,0,1,6.91,6.7A10,10,0,0,1,28.39,27c0,5.78,0,11.56,0,17.35,0,.12,0,.24,0,.36a.86.86,0,0,0,0,.17,4,4,0,0,0,1.5.3c0-.13,0-.26,0-.39V26.72a10.75,10.75,0,0,0-.14-1.88A10.38,10.38,0,0,0,19.18,16.2l-.19,0a7.16,7.16,0,0,0-.21,1.56M35.55,44.9v-18a10.21,10.21,0,0,1,.14-1.74,8.94,8.94,0,0,1,6.65-7.12,10,10,0,0,1,2.37-.28,1.46,1.46,0,0,0,.42,0,4,4,0,0,0-.22-1.56l-.2,0a12.19,12.19,0,0,0-2.34.19A10.32,10.32,0,0,0,34,26.59c0,6,0,12,0,17.93,0,.15,0,.31,0,.47s0,.14,0,.23a8,8,0,0,0,1.5-.32m6-3.59.27-.27a13,13,0,0,0,3.43-8.86c0-1.76,0-3.53,0-5.3v-2.5a.8.8,0,0,0,0-.4,1.4,1.4,0,0,0-.54,0,3.52,3.52,0,0,0-3.05,2.76,4.49,4.49,0,0,0-.08,1V40.84c0,.13,0,.26,0,.47m-19.13,0a1.09,1.09,0,0,0,.05-.49q0-6.54,0-13.09c0-.13,0-.27,0-.4a3.23,3.23,0,0,0-.66-1.89A3.45,3.45,0,0,0,19,24a1.47,1.47,0,0,0-.26.05c0,.16,0,.3,0,.45V32.1a13.29,13.29,0,0,0,.19,2.27A13.13,13.13,0,0,0,22.08,41c.08.1.18.2.3.33M28,44.75a1.48,1.48,0,0,0,0-.42q0-8.7,0-17.39c0-.12,0-.24,0-.36a8.89,8.89,0,0,0-.31-2.11,8.64,8.64,0,0,0-8.84-6.32.5.5,0,0,0-.13,0,5.23,5.23,0,0,0,0,1.53,1,1,0,0,0,.42,0,7.34,7.34,0,0,1,1.55.15,7.26,7.26,0,0,1,5.6,5.48,9.36,9.36,0,0,1,.18,2V44l0,.23a4.94,4.94,0,0,0,1.49.54M45.17,18.17l-.16,0a9.11,9.11,0,0,0-2,.13,8.64,8.64,0,0,0-6.47,5.22,8.79,8.79,0,0,0-.63,3.36V44.58l0,.17a4.72,4.72,0,0,0,1.51-.58v-17a7.94,7.94,0,0,1,.15-1.62,7.23,7.23,0,0,1,5.67-5.62,8.14,8.14,0,0,1,1.55-.15.5.5,0,0,0,.38,0,7.71,7.71,0,0,0,0-1.52m-1.24-4.26a.86.86,0,0,0-.2-.38,12.52,12.52,0,0,0-7-5.18,12.66,12.66,0,0,0-3.51-.49c-.81,0-1.62,0-2.43,0a12.37,12.37,0,0,0-2.35.21,12.56,12.56,0,0,0-7.31,4.27,11.88,11.88,0,0,0-1,1.34c0,.07-.11.14-.05.24.3,0,.61.07.93.08a5.74,5.74,0,0,0,.93.08l.28-.34A11,11,0,0,1,25,11.22a10.81,10.81,0,0,1,5.38-1.65c1,0,2.08,0,3.12,0a8.81,8.81,0,0,1,2,.28,11,11,0,0,1,6.24,4l.23.27,1.88-.19m1.25,6.21a.44.44,0,0,0-.19,0,11.24,11.24,0,0,0-1.16,0A6.93,6.93,0,0,0,37.75,27V43.56a2.26,2.26,0,0,0,0,.26.81.81,0,0,0,0,.19,1.2,1.2,0,0,0,.25-.09c.34-.19.67-.39,1-.57a.44.44,0,0,0,.26-.5,2.8,2.8,0,0,1,0-.29V27.39a6.7,6.7,0,0,1,0-.9,5.46,5.46,0,0,1,2.84-4.12,5.32,5.32,0,0,1,2.56-.68.73.73,0,0,0,.42-.05,7.64,7.64,0,0,0,0-1.52m-26.45,0c0,.19,0,.36,0,.53v.51a1.15,1.15,0,0,0,.06.51l.32,0c.32,0,.65,0,1,.09A5.55,5.55,0,0,1,24.52,26a8,8,0,0,1,.13,1.55V43.13l.07.09a8.18,8.18,0,0,0,1.35.78s.06,0,.12,0V27a7,7,0,0,0-.2-1.65,6.93,6.93,0,0,0-7-5.26l-.23,0M39.65,42.91c.12-.08.2-.12.26-.17.31-.24.61-.48.9-.73s.36-.26.36-.81V27.77q0-.36,0-.72a3.81,3.81,0,0,1,2.93-3.32c.27-.06.55-.08.82-.12l.23,0a5.45,5.45,0,0,0,0-1.54L45,22c-.25,0-.49,0-.73,0a5.25,5.25,0,0,0-4.6,5.3q0,7.1,0,14.19v1.06c0,.08,0,.16,0,.3M18.77,23.57a.83.83,0,0,0,.35.05,3.82,3.82,0,0,1,3.18,2,3.72,3.72,0,0,1,.47,1.88V41.12c0,.1,0,.21,0,.32a.4.4,0,0,0,.16.38l1.17,1a.82.82,0,0,0,.19.1c0-.14,0-.25,0-.35V27.22a5.69,5.69,0,0,0-.07-.83A5.22,5.22,0,0,0,18.93,22a.76.76,0,0,0-.16,0,6,6,0,0,0,0,1.53m22.86-9.39a2.14,2.14,0,0,0-.36-.5,10.74,10.74,0,0,0-8.2-3.8q-1,0-1.92,0c-.4,0-.8,0-1.2,0a10.51,10.51,0,0,0-4.65,1.51,10.73,10.73,0,0,0-2.78,2.42c-.07.09-.17.17-.18.29s0,0,0,0l1.64.48h.1l.23-.24a9.32,9.32,0,0,1,6.74-2.85h1.85a9.15,9.15,0,0,1,2.33.31,9.36,9.36,0,0,1,4.36,2.56c.08.08.14.2.27.23l1.74-.49m-2.16.66a.64.64,0,0,0-.22-.3,8.87,8.87,0,0,0-6.16-2.63c-.72,0-1.45,0-2.17,0a7.79,7.79,0,0,0-1.87.23,9,9,0,0,0-4.38,2.43,3,3,0,0,0-.22.26,4.44,4.44,0,0,0,.53.27l.56.27.51.27.38-.31a7.47,7.47,0,0,1,4.78-1.73h1.56a7,7,0,0,1,1.58.18,7.43,7.43,0,0,1,3.28,1.64c.09.07.16.18.28.2l1.56-.77m-1.92,1a1,1,0,0,0-.29-.29,7.08,7.08,0,0,0-4.38-1.6c-.59,0-1.19,0-1.78,0a6.44,6.44,0,0,0-1.44.17,7.16,7.16,0,0,0-3.08,1.53c-.07.06-.17.11-.16.23l1.31,1,0,0h.06l.31-.21a5.54,5.54,0,0,1,3-1c.54,0,1.09,0,1.63,0l.4,0A5.92,5.92,0,0,1,36,16.73c.06.05.14.08.21.13l.47-.37.44-.32a3.82,3.82,0,0,0,.47-.35m-8,2.8c.29.43.58.83.83,1.25A14.49,14.49,0,0,1,31,21.22c.2.45.37.92.53,1.39s.26,1,.4,1.51c.05-.16.07-.26.1-.37.09-.34.16-.68.26-1a12.08,12.08,0,0,1,1.91-3.81c.07-.1.17-.18.17-.31l0-.06-.08-.06A3.82,3.82,0,0,0,32.89,18a8.14,8.14,0,0,0-1.56,0,3.36,3.36,0,0,0-1.51.45c-.11.06-.2.13-.32.21m-.23-.27.27-.16a3.89,3.89,0,0,1,1.93-.56h1a3.84,3.84,0,0,1,1.89.55l.27.15s.06,0,.08,0l1.08-1.12s0,0,0-.06-.17-.17-.26-.24A5.25,5.25,0,0,0,32.72,16H31.24a5.23,5.23,0,0,0-3,1,.9.9,0,0,0-.18.16l1.19,1.24" transform="translate(-0.02 -3.19)"/><path class="cls-2" d="M47.41,32.65c0-2.4,0-4.8,0-7.19V18A13.78,13.78,0,0,0,47,14.6a14.46,14.46,0,0,0-5.28-8.08,15.56,15.56,0,0,0-12.3-3.13A15.19,15.19,0,0,0,23.3,5.75a14.65,14.65,0,0,0-6.77,12.47c0,.81,0,1.62,0,2.43v12.2a13.72,13.72,0,0,0,.33,3.06A14.28,14.28,0,0,0,21.81,44,15.52,15.52,0,0,0,34.1,47.57a15.09,15.09,0,0,0,6-2.09,14.73,14.73,0,0,0,7.29-12.83m-1.87-.53a13.36,13.36,0,0,1-.84,4.73A13.59,13.59,0,0,1,34.43,45.5a13.74,13.74,0,0,1-3.39.19,13.09,13.09,0,0,1-6-1.88,13.45,13.45,0,0,1-6.38-9,12,12,0,0,1-.25-2.67V24.45c0-1.91,0-3.82,0-5.74a13.1,13.1,0,0,1,2.14-7.27,13.31,13.31,0,0,1,8.85-6,13.56,13.56,0,0,1,15.15,8.23,13.31,13.31,0,0,1,.89,3.51,12.62,12.62,0,0,1,.09,1.63c0,1.36,0,2.73,0,4.1v2.57c0,2.22,0,4.43,0,6.64" transform="translate(-0.02 -3.19)"/><path class="cls-2" d="M37.42,18.43a10.4,10.4,0,0,1,6.46-2.54h.76a2.07,2.07,0,0,0,.22,0,2.43,2.43,0,0,0-.16-.73,2.9,2.9,0,0,0-.3-.82,2.54,2.54,0,0,0-.39,0,11,11,0,0,0-1.81.15,11.77,11.77,0,0,0-7.78,4.83,11.59,11.59,0,0,0-2.28,7q0,9.33,0,18.65a1.61,1.61,0,0,0,0,.22c0,.07,0,.14,0,.22a6.45,6.45,0,0,0,1.46-.11,1.11,1.11,0,0,0,0-.4V26.57a10.19,10.19,0,0,1,.16-1.91,10.45,10.45,0,0,1,3.58-6.23" transform="translate(-0.02 -3.19)"/><path class="cls-2" d="M28.35,17.87A11.77,11.77,0,0,0,20,14.28a2.87,2.87,0,0,0-.42,0,4.62,4.62,0,0,0-.45,1.58h.52a10.81,10.81,0,0,1,2.2.23,10.59,10.59,0,0,1,8.44,10.43V45.05a1.2,1.2,0,0,0,0,.2,3.56,3.56,0,0,0,1.5.08c0-.13,0-.26,0-.39V26.28a11.1,11.1,0,0,0-.15-1.91,11.74,11.74,0,0,0-3.3-6.5" transform="translate(-0.02 -3.19)"/><path class="cls-2" d="M26,18.45a10.24,10.24,0,0,0-6.85-2.25l-.19,0a7.16,7.16,0,0,0-.21,1.56h.48a11.06,11.06,0,0,1,2,.19,9,9,0,0,1,6.91,6.7A10,10,0,0,1,28.39,27c0,5.78,0,11.56,0,17.35,0,.12,0,.24,0,.36a.86.86,0,0,0,0,.17,4,4,0,0,0,1.5.3c0-.13,0-.26,0-.39V26.72a10.75,10.75,0,0,0-.14-1.88A10.21,10.21,0,0,0,26,18.45" transform="translate(-0.02 -3.19)"/><path class="cls-2" d="M42.34,18.08a10,10,0,0,1,2.37-.28,1.46,1.46,0,0,0,.42,0,4,4,0,0,0-.22-1.56l-.2,0a11.44,11.44,0,0,0-2.34.2A10.3,10.3,0,0,0,34,26.59c0,6,0,12,0,17.93,0,.15,0,.31,0,.47s0,.14,0,.23a8,8,0,0,0,1.5-.32v-18a10.21,10.21,0,0,1,.14-1.74,8.94,8.94,0,0,1,6.65-7.12" transform="translate(-0.02 -3.19)"/><path class="cls-2" d="M45.21,24.38a.8.8,0,0,0,0-.4,1.4,1.4,0,0,0-.54,0,3.52,3.52,0,0,0-3.05,2.76,4.49,4.49,0,0,0-.08,1V40.84c0,.13,0,.26,0,.47l.27-.27a13,13,0,0,0,3.43-8.86c0-1.76,0-3.53,0-5.3v-2.5" transform="translate(-0.02 -3.19)"/><path class="cls-2" d="M22.44,27.7c0-.13,0-.27,0-.4a3.23,3.23,0,0,0-.66-1.89A3.45,3.45,0,0,0,19,24a1.47,1.47,0,0,0-.26.05c0,.16,0,.3,0,.45V32.1a13.29,13.29,0,0,0,.19,2.27A13.13,13.13,0,0,0,22.08,41c.08.1.18.2.3.33a1.09,1.09,0,0,0,.05-.49q0-6.54,0-13.09" transform="translate(-0.02 -3.19)"/><path class="cls-2" d="M28.07,26.94c0-.12,0-.24,0-.36a8.89,8.89,0,0,0-.31-2.11,8.64,8.64,0,0,0-8.84-6.32.5.5,0,0,0-.13,0,5.23,5.23,0,0,0,0,1.53,1,1,0,0,0,.42,0,7.34,7.34,0,0,1,1.55.15,7.26,7.26,0,0,1,5.6,5.48,9.36,9.36,0,0,1,.18,2V44l0,.23a5,5,0,0,0,1.49.54,1.48,1.48,0,0,0,0-.42q0-8.7,0-17.39" transform="translate(-0.02 -3.19)"/><path class="cls-2" d="M43.25,19.89a8.14,8.14,0,0,1,1.55-.15.5.5,0,0,0,.38,0,7.71,7.71,0,0,0,0-1.52l-.16,0a9.11,9.11,0,0,0-2,.13,8.64,8.64,0,0,0-6.47,5.22,8.79,8.79,0,0,0-.63,3.36V44.58l0,.17a4.72,4.72,0,0,0,1.51-.58v-17a7.94,7.94,0,0,1,.15-1.62,7.23,7.23,0,0,1,5.67-5.62" transform="translate(-0.02 -3.19)"/><path class="cls-2" d="M42.05,14.1l1.88-.19a.86.86,0,0,0-.2-.38,12.52,12.52,0,0,0-7-5.18,12.66,12.66,0,0,0-3.51-.49c-.81,0-1.62,0-2.43,0a12.37,12.37,0,0,0-2.35.21,12.56,12.56,0,0,0-7.31,4.27,11.88,11.88,0,0,0-1,1.34c0,.07-.11.14-.05.24.3,0,.61.07.93.08a5.74,5.74,0,0,0,.93.08l.28-.34A11,11,0,0,1,25,11.22a10.81,10.81,0,0,1,5.38-1.65c1,0,2.08,0,3.12,0a8.81,8.81,0,0,1,2,.28,11,11,0,0,1,6.24,4l.23.27" transform="translate(-0.02 -3.19)"/><path class="cls-2" d="M42.19,22.37a5.32,5.32,0,0,1,2.56-.68.73.73,0,0,0,.42-.05,7.64,7.64,0,0,0,0-1.52.44.44,0,0,0-.19,0,11.24,11.24,0,0,0-1.16,0A6.93,6.93,0,0,0,37.75,27V43.56a2.26,2.26,0,0,0,0,.26.81.81,0,0,0,0,.19,1.2,1.2,0,0,0,.25-.09c.34-.19.67-.39,1-.57a.44.44,0,0,0,.26-.5,2.8,2.8,0,0,1,0-.29V27.39a6.7,6.7,0,0,1,0-.9,5.46,5.46,0,0,1,2.84-4.12" transform="translate(-0.02 -3.19)"/><path class="cls-2" d="M19,20.08l-.23,0c0,.19,0,.36,0,.53v.51a1.15,1.15,0,0,0,.06.51l.32,0c.32,0,.65,0,1,.09A5.55,5.55,0,0,1,24.52,26a8,8,0,0,1,.13,1.55V43.13l.07.09a8.18,8.18,0,0,0,1.35.78s.06,0,.12,0V27a7,7,0,0,0-.2-1.65,6.93,6.93,0,0,0-7-5.26" transform="translate(-0.02 -3.19)"/><path class="cls-2" d="M45,22c-.25,0-.49,0-.73,0a5.25,5.25,0,0,0-4.6,5.3q0,7.1,0,14.19v1.06c0,.08,0,.16,0,.3.12-.08.2-.12.26-.17.3-.24.61-.48.9-.73s.36-.26.36-.81V27.77q0-.36,0-.72a3.81,3.81,0,0,1,2.93-3.32c.27-.06.55-.08.82-.12l.23,0a5.45,5.45,0,0,0,0-1.54L45,22" transform="translate(-0.02 -3.19)"/><path class="cls-2" d="M24.24,26.39A5.22,5.22,0,0,0,18.93,22a.76.76,0,0,0-.16,0,6,6,0,0,0,0,1.53.83.83,0,0,0,.35.05,3.82,3.82,0,0,1,3.18,2,3.72,3.72,0,0,1,.47,1.88V41.12c0,.1,0,.21,0,.32a.4.4,0,0,0,.16.38l1.17,1a.82.82,0,0,0,.19.1c0-.14,0-.25,0-.35V27.22a5.69,5.69,0,0,0-.07-.83" transform="translate(-0.02 -3.19)"/><path class="cls-2" d="M39.89,14.67l1.74-.49a2.14,2.14,0,0,0-.36-.5,10.74,10.74,0,0,0-8.2-3.8q-1,0-1.92,0c-.4,0-.8,0-1.2,0a10.51,10.51,0,0,0-4.65,1.51,10.73,10.73,0,0,0-2.78,2.42c-.07.09-.17.17-.18.29s0,0,0,0l1.64.48h.1l.23-.24a9.31,9.31,0,0,1,6.74-2.85h1.85a9.15,9.15,0,0,1,2.33.31,9.36,9.36,0,0,1,4.36,2.56c.08.08.14.2.27.23" transform="translate(-0.02 -3.19)"/><path class="cls-2" d="M20.25,12.88a13.16,13.16,0,0,1,2.09-2.26,12.71,12.71,0,0,1,8.15-3.07c.94,0,1.87,0,2.8,0a12.19,12.19,0,0,1,2.09.17,12.9,12.9,0,0,1,8.26,5.1,3.81,3.81,0,0,0,.24.32s.08,0,.12,0L43.88,13A13.29,13.29,0,0,0,30.34,5.61a12.54,12.54,0,0,0-5.05,1.72,13.13,13.13,0,0,0-5.13,5.44,2.24,2.24,0,0,0-.14.36c.13,0,.17-.16.23-.25" transform="translate(-0.02 -3.19)"/><polyline class="cls-2" points="20 9.94 20 9.95 20 9.95 20 9.94"/><polygon class="cls-2" points="43.98 9.99 43.98 9.99 43.99 10 43.98 9.99"/><path class="cls-2" d="M37.91,15.61l1.56-.77a.64.64,0,0,0-.22-.3,8.87,8.87,0,0,0-6.16-2.63c-.72,0-1.45,0-2.17,0a7.79,7.79,0,0,0-1.87.23,9,9,0,0,0-4.38,2.43,3,3,0,0,0-.22.26,4.44,4.44,0,0,0,.53.27l.56.27.51.27.38-.31a7.47,7.47,0,0,1,4.78-1.73h1.56a7,7,0,0,1,1.58.18,7.43,7.43,0,0,1,3.28,1.64c.09.07.16.18.28.2" transform="translate(-0.02 -3.19)"/><path class="cls-2" d="M36.17,16.86l.47-.37.44-.32a3.82,3.82,0,0,0,.47-.35,1,1,0,0,0-.29-.29,7.08,7.08,0,0,0-4.38-1.6c-.59,0-1.18,0-1.78,0a6.44,6.44,0,0,0-1.44.17,7.16,7.16,0,0,0-3.08,1.53c-.07.06-.17.11-.16.23l1.31,1,0,0h.06l.31-.21a5.54,5.54,0,0,1,3-1c.54,0,1.09,0,1.63,0l.4,0A5.92,5.92,0,0,1,36,16.73c.06.05.14.08.21.13" transform="translate(-0.02 -3.19)"/><path class="cls-2" d="M34.24,18.93c.07-.1.17-.18.17-.31l0-.06-.08-.06A3.82,3.82,0,0,0,32.89,18a8.14,8.14,0,0,0-1.56,0,3.36,3.36,0,0,0-1.51.45c-.11.06-.2.13-.32.21.29.43.58.83.83,1.25A14.49,14.49,0,0,1,31,21.22c.2.45.37.92.53,1.39s.26,1,.4,1.51c.05-.16.07-.26.1-.37.09-.34.16-.68.26-1a12.08,12.08,0,0,1,1.91-3.81" transform="translate(-0.02 -3.19)"/><path class="cls-2" d="M32.72,16H31.24a5.23,5.23,0,0,0-3,1,.9.9,0,0,0-.18.16l1.19,1.24.27-.16a3.89,3.89,0,0,1,1.93-.56h1a3.84,3.84,0,0,1,1.89.55l.27.15s.06,0,.08,0l1.08-1.12s0,0,0-.06-.17-.17-.26-.24A5.25,5.25,0,0,0,32.72,16" transform="translate(-0.02 -3.19)"/><polyline class="cls-3" points="43.99 10 43.98 9.99 43.99 10"/><path class="cls-3" d="M20,13.13l-.07.15h0l.08-.14h0" transform="translate(-0.02 -3.19)"/><polyline class="cls-3" points="19.93 10.09 19.92 10.11 19.92 10.1 19.93 10.09"/></svg>