<svg id="Layer_1" data-name="Layer 1" xmlns="http://www.w3.org/2000/svg" viewBox="0 0 60.87 62"><defs><style>.cls-1,.cls-4{fill:#cf942a;}.cls-1,.cls-2{fill-rule:evenodd;}.cls-2,.cls-3{fill:#fff;}</style></defs><title>the-patio-bella</title><path class="cls-1" d="M62.1,29.61a2.81,2.81,0,0,0-.07-.86c-.07-.17,0-.39,0-.59s-.06-.4-.08-.6a7.6,7.6,0,0,0-.1-1.07,2.26,2.26,0,0,0-.09-.55,1.44,1.44,0,0,1-.07-.44c0-.15-.06-.29-.08-.44s-.1-.49-.15-.74c-.1-.51-.25-1-.36-1.51s-.2-.74-.31-1.1-.24-.67-.36-1c-.26-.73-.54-1.45-.83-2.16a6.06,6.06,0,0,1-.28-.65,3.06,3.06,0,0,0-.37-.82c-.34-.53-.57-1.11-.91-1.63s-.46-.8-.71-1.19-.66-1-1-1.53-.65-.81-.95-1.23c-.18-.23-.4-.42-.57-.65-.35-.45-.74-.86-1.12-1.28-.2-.22-.42-.43-.63-.63s-.57-.49-.83-.76c-.13-.12-.24,0-.35,0-.18-.15-.31-.36-.53-.45l.19-.1a1.83,1.83,0,0,0-.37-.41c-.38-.31-.77-.6-1.16-.9s-.52-.43-.8-.63a4.65,4.65,0,0,0-.61-.36c-.08,0-.19-.09-.23.07s-.26-.13-.39-.2c-.4-.2-.77-.47-1.15-.7s-.7-.44-1.06-.63-.66-.32-1-.49c-.5-.25-1-.49-1.53-.7s-.94-.34-1.4-.53-.71-.28-1.07-.4c-.61-.19-1.24-.35-1.86-.53-.12,0-.23-.05-.35-.08a5.12,5.12,0,0,0-1-.17c-.13-.19-.39,0-.52-.16-.18,0-.34-.2-.52,0-.23-.16-.51,0-.75-.14s-.31,0-.46,0a4,4,0,0,0-.48-.07,3,3,0,0,1-.43-.09,8.33,8.33,0,0,1-.86-.08,3.15,3.15,0,0,0-1,0,6.51,6.51,0,0,1-1-.1c-.55,0-1.08.1-1.62.1a3.49,3.49,0,0,0-1.16.06,2.86,2.86,0,0,1-.59,0c-.2,0-.4.05-.6.08s-.46,0-.69.1c-.05,0-.08.07-.19.19A11.2,11.2,0,0,0,28.13.73a3.21,3.21,0,0,1,.76,0c.26,0,.51-.08.77-.08.55,0,1.11,0,1.66,0A9.38,9.38,0,0,1,33,.71a10.7,10.7,0,0,0,1.28.1s.06,0,.08,0,.34,0,.47.09a.8.8,0,0,0,.52.07,1.71,1.71,0,0,1,.72.12,9.43,9.43,0,0,0,1.36.29c.47.08.91.25,1.38.33a.26.26,0,0,1-.17,0l-1.1-.21L37,1.4a1.57,1.57,0,0,0-.65-.08c-.1-.15-.25-.07-.39-.09l-.43-.09c-.13,0-.26-.07-.39-.08A8.31,8.31,0,0,1,34.23,1a14.53,14.53,0,0,0-1.62-.1c-.39,0-.79,0-1.19,0A10.82,10.82,0,0,0,29.37,1c-.2,0-.42,0-.63,0s-.4.07-.6.08a11,11,0,0,1-1.29.09s-.09.05-.14.06c-.27.05-.54.22-.81,0l-.65.09s0,0,0,.06c0,.22-.2.18-.35.19s-.19,0-.28.06-.15,0-.22,0a1.54,1.54,0,0,0-1.14.15l.33.11-1.29.28c-.08,0-.14-.21-.29-.15a2.13,2.13,0,0,0-.89.41,2.42,2.42,0,0,1-.58.35c-.24.11-.49.18-.73.29a2.41,2.41,0,0,1-1.15.31s-.09,0-.14.05c-.22,0-.35.18-.53.27s-.35.17-.52.27a1.65,1.65,0,0,0-.33.24.86.86,0,0,1-.61.27.62.62,0,0,0-.4.15l-.9.72a1.12,1.12,0,0,1-.71.33.45.45,0,0,0-.3.1c-.34.3-.83.43-1,.91l-1,.85c-.13.11-.25.23-.38.32A12.14,12.14,0,0,0,10.52,8.9a1,1,0,0,1-.21.2,1.81,1.81,0,0,0-.6.6,1,1,0,0,1-.64.39c-.05.13,0,.26-.11.39a8.19,8.19,0,0,0-1,1c-.1.14-.17.31-.27.44s-.31.23-.43.37-.43.59-.64.88-.51.72-.76,1.09-.56.84-.83,1.27-.41.74-.62,1.1c-.35.63-.63,1.3-.93,1.95-.17.35-.37.67-.51,1s-.31.83-.47,1.25c-.24.6-.41,1.24-.65,1.84l.23.09c-.06.07-.13.12-.12.16,0,.3-.16.56-.21.85s-.17.59-.22.88-.16.6-.19.91a3.17,3.17,0,0,1-.08.55,2.92,2.92,0,0,0-.07,1,3.53,3.53,0,0,0,.33-.9V27a1.49,1.49,0,0,0,.33-.76c.1-.29.07-.61.18-.91a.5.5,0,0,0,0-.21c0-.07-.15-.09-.26,0v.25c-.08-.15-.08-.15,0-.25,0-.37.2-.67.24-1,0,.09,0,.18.06.32.09-.1.19-.15.21-.22a3.15,3.15,0,0,1,.3-.77l.1.08c.06-.08.11-.17.17-.26l.07.3c.08-.05.14-.07.16-.12A1.83,1.83,0,0,0,3.27,23a2.09,2.09,0,0,0,0-.36A2,2,0,0,0,3,23S3,23,3,23s0,0,0,0H3s0-.05,0-.1H3a1,1,0,0,1,.21-.53,1.77,1.77,0,0,0,0-.24c.08.14.08.14,0,.24a.58.58,0,0,0,.1.09.63.63,0,0,0,.15-.18,4.23,4.23,0,0,0,.25-.58c.22-.63.5-1.24.72-1.87,0-.1.15-.25.11-.31s0-.41-.06-.58l.43-.44a.61.61,0,0,1,.22-.63,2.07,2.07,0,0,0,.08.21c.08-.1.19-.17.22-.27s.4-.38.16-.68c0,0,0-.12,0-.19.06-.25.26-.28.44-.26l.09-.18.66-1c.3-.44.61-.88.9-1.33.13-.21.35-.38.39-.64a1.19,1.19,0,0,1,.36-.62,3.66,3.66,0,0,0,.33-.48h.38a3.84,3.84,0,0,1,.54-.58,10.42,10.42,0,0,0,.82-.67c.45-.39.83-.87,1.31-1.23s.86-.74,1.29-1.11c.15-.12.29-.25.45-.36.47-.33.93-.67,1.41-1s1.15-.77,1.75-1.11A3.83,3.83,0,0,0,17.47,6a3.74,3.74,0,0,1,.59-.33,4.8,4.8,0,0,1,.52-.36,3,3,0,0,0,1.12-.69l0,0a3.33,3.33,0,0,1,1.66-.35.66.66,0,0,0,.24,0,1.23,1.23,0,0,0,.62-.36.62.62,0,0,1,.52-.13.62.62,0,0,0,.33,0,7.44,7.44,0,0,0,.74-.28A5.8,5.8,0,0,1,25,3c.2-.07.42,0,.59-.1a2.53,2.53,0,0,1,.36-.07l.39-.08,1-.09s.07,0,.11,0a.76.76,0,0,1,.64,0l.19-.18.39.21.22-.27,2,.19a.42.42,0,0,1-.24,0c-.43,0-.85,0-1.28,0a.84.84,0,0,0-.6.21.2.2,0,0,1-.26,0,.41.41,0,0,0-.19,0,.59.59,0,0,0-.31.07c-.09,0-.22-.06-.34-.07s-.1.09-.18.17-.46,0-.64.16C26.57,3,26.57,3,26.25,3s-.26.12-.36.22c.06,0,.14.06.16.11s0,.11-.07.17.1,0,.13,0a.74.74,0,0,1,.62,0,.78.78,0,0,0,.54,0l-.12-.24c.17.06.3,0,.46.07a.75.75,0,0,0,.53,0A2.88,2.88,0,0,1,29,3.27a1.66,1.66,0,0,1,.8.11.7.7,0,0,0,.75-.12.3.3,0,0,1,.31-.07,1,1,0,0,0,.65.07.76.76,0,0,1,.5.12.32.32,0,0,0,.32.05c.31-.17.63,0,.94-.07a.3.3,0,0,1,.22.08.78.78,0,0,0,.65.17,1.3,1.3,0,0,1,.45.05,1.69,1.69,0,0,0,1.23,0s.08.13.14.16a1.26,1.26,0,0,0,.44.17,4.76,4.76,0,0,1,1.16.32.37.37,0,0,1-.25,0,5.73,5.73,0,0,0-.69-.16,1.58,1.58,0,0,0-.31-.09,1.83,1.83,0,0,1-.33,0A2.9,2.9,0,0,0,35.11,4c-.08,0-.21,0-.25,0s-.26,0-.39-.08-.29-.07-.44-.08a2.94,2.94,0,0,1-1-.08,13.43,13.43,0,0,1-1.79-.1c-.54,0-1.05.11-1.58.1s-1.08,0-1.62.08H28c-.13.16-.32.05-.47.08A2.7,2.7,0,0,1,27,4c-.25,0-.48.15-.73.09a10,10,0,0,1-1.21.26,3.86,3.86,0,0,0-.51.09,3.62,3.62,0,0,1-.84.23c-.47.08-.9.32-1.38.36-.31.23-.72.25-1,.49a2.13,2.13,0,0,1-.46.2c-.16.07-.33,0-.47.09l-1.83.83a.83.83,0,0,0-.17.16c.44.28.7.22,1.12-.21l-.08-.1a4.6,4.6,0,0,0,1.17-.39A1.39,1.39,0,0,1,20.78,6a4.68,4.68,0,0,0,.83-.25,4,4,0,0,1,1.13-.36,13.71,13.71,0,0,0,1.63-.47,11.18,11.18,0,0,1,1.72-.36,2,2,0,0,1,.69-.09c.23-.23.41,0,.61,0-.23.09-.52-.07-.69.2h-.09a.9.9,0,0,0-.39.07,1.56,1.56,0,0,1-.43.08A1.14,1.14,0,0,0,25,5.2a1.11,1.11,0,0,0-.95.13,2.1,2.1,0,0,1-.41.24c-.15,0-.32,0-.43.09s-.32.07-.48.07a.86.86,0,0,0-.51.14v.29h-.35a.77.77,0,0,0-.3.11A3.18,3.18,0,0,1,21,6.5l-.14.07c-.32.21-.32.21-.56.69a1.06,1.06,0,0,0,.53-.15c.09,0,.13-.05.14-.16a.21.21,0,0,1,.25-.2h.34a.69.69,0,0,0,.67-.3l-.1-.16c.24.07.43,0,.57.11l.33-.5a2.46,2.46,0,0,0,1.17-.17,2,2,0,0,1,.54-.09l-.16.18c.27,0,.49,0,.71-.1a4.36,4.36,0,0,0,.53-.2.65.65,0,0,0,0-.2c0-.06-.13-.08-.12-.17.23-.08.3.08.36.24a5.33,5.33,0,0,0,1.12-.08,6.55,6.55,0,0,1,.89-.1.92.92,0,0,0,.27-.08.74.74,0,0,1,.49-.08c1.24,0,2.5-.08,3.74.07a2.53,2.53,0,0,0,.86.1c.17.19.44,0,.61.16.37,0,.7.22,1.08.18.06,0,.12,0,.18.06l.82.19a5.31,5.31,0,0,1,.68.2,6.41,6.41,0,0,0,.76.32c.26.08.5.22.77.29.51.12,1,.32,1.51.46s.82.41,1.27.52a1.48,1.48,0,0,0,.58.34c.06,0,.1.08.14.12a4.66,4.66,0,0,0-1.5-.38c.47.42,1.07.46,1.51.8l-.08.09c.17.11.33.24.5.34a.65.65,0,0,0,.41.13,1,1,0,0,1,.49.08,7,7,0,0,1,1,.55c.12.07.09.18.13.31h0s0,0,0,0,0,.05,0,.05l-.05,0,0,0a1.6,1.6,0,0,1-.7-.31,1.12,1.12,0,0,0-.24-.13c-.77-.37-1.52-.76-2.31-1.07A11.17,11.17,0,0,1,39.58,8c-.07,0-.19-.09-.24-.06s-.36,0-.53.06c0,.19.23.06.35.11a6.68,6.68,0,0,0,.89.31,16.55,16.55,0,0,1,2.11.84c.43.21.87.41,1.3.63a13.44,13.44,0,0,1,1.47.86,1.29,1.29,0,0,0,.59.31c-.1-.23-.34-.29-.51-.43s-.23-.17-.36-.25h0a.64.64,0,0,0,0-.07.64.64,0,0,1,0,.07c.08,0,.16,0,.15-.09l-.06-.05s.05,0,.06,0,0,0,0,.06h0c.07,0,.15,0,.18,0,.32.33.77.5,1.1.82.22,0,.26.33.49.35a11.23,11.23,0,0,1,1.31,1.27c-.17,0-.22-.12-.32-.2s-.17-.26-.36-.23a.73.73,0,0,0,.09.13c.24.21.49.41.71.63.75.77,1.49,1.53,2.22,2.31.16.17.25.41.51.5,0,0,.06.05.09.09l1.07,1.5s.05.06.05.09a1,1,0,0,0,.23.7c.05.08.09.16.13.24l.51,1a1.28,1.28,0,0,0,.17.22s.1,0,.14,0a.59.59,0,0,0,0-.17l-.07-.09s0,0,.07,0a.41.41,0,0,0,.1.17c.26.56.55,1.1.77,1.68.14.36.3.72.43,1.09l.33,1c.11.32.22.65.31,1s.2.74.28,1.11c0,.07,0,.2-.06.22s-.12.2-.1.25a1.36,1.36,0,0,1,.08.39c.05.25.12.49.19.73h0l0-.33c.09.21.06.42.14.63s0,.43.11.68c.36,7.43-1.72,11.64-1.72,11.64s-.05,0,0,.05l0,0a5.24,5.24,0,0,1-.3.89c-.32.67-.64,1.32-1,2a3,3,0,0,1-.53.88,3.43,3.43,0,0,0-.36.49,6.59,6.59,0,0,1-.51.85,1.59,1.59,0,0,0-.3.34.79.79,0,0,1-.51.42c-.11,0-.25.12-.28.21s-.24.22-.33.33-.31.1-.45.15a.63.63,0,0,1-.24.52c-.42.38-.8.81-1.24,1.18s-.93.86-1.44,1.26A5.65,5.65,0,0,1,45.3,50c-.12.06-.27.14-.31.24-.13.3-.41.38-.65.51s-.75.37-1.12.57l-1.2.64c-.1,0,0-.23-.2-.18l-.15.06-1.34.66-.81.39c-.28.14-.6.09-.88.25-.5,0-1,.27-1.46.25-.53.2-1.11.18-1.65.34-.16,0-.34,0-.52.07a2.34,2.34,0,0,1-.56.09,8.38,8.38,0,0,1-1.23.09c-.5,0-1,0-1.49,0a.92.92,0,0,0-.36.05.72.72,0,0,1-.52,0,1.32,1.32,0,0,0-.32-.05,4.23,4.23,0,0,1-1.12-.08,1.14,1.14,0,0,0-.55,0c-.2,0-.36-.09-.56-.1a2.45,2.45,0,0,1-.72-.09,4.3,4.3,0,0,0-.47-.09c-.72-.24-1.46-.37-2.19-.57a12.35,12.35,0,0,1-1.34-.44,15.72,15.72,0,0,1-1.52-.64c-1-.49-2-1-3-1.52-.65-.35-1.32-.65-2-1l-1.49-.72a2.11,2.11,0,0,0-.84-.33c-.11-.14-.29,0-.44-.16a3.46,3.46,0,0,1-.8-.82,1.39,1.39,0,0,0-.21-.21.18.18,0,0,0-.29,0s0,.09-.09.14a7.49,7.49,0,0,1-.55-.63,1.55,1.55,0,0,0-.7-.64.68.68,0,0,1-.26-.18,6.52,6.52,0,0,0-1.06-.82.46.46,0,0,0-.57,0c-.14-.09-.2-.26-.39-.27a2.34,2.34,0,0,1,0,.26c-.23-.16-.49,0-.7-.1s-.28-.34-.41-.5c-.16.13-.17.22-.08.38.24.43.45.88.66,1.34a.73.73,0,0,1,.16.33H9c-.1-.11-.16-.23-.25-.26s-.24-.24-.35-.37L8,45.43c-.24-.28-.47-.58-.73-.84a1.37,1.37,0,0,0-.43-.25l-.3.21c.21.45.43.86.61,1.3s.3.89.46,1.37H7.28a1.28,1.28,0,0,0,.1.83A15.57,15.57,0,0,0,8.49,50.1c.39.52.79,1,1.21,1.54l.75.92c.39.48.81.94,1.23,1.41.07.08.19.14.23.24s.29.33.43.5.27.35.42.51a17.64,17.64,0,0,0,1.57,1.42c.37.3.74.59,1.14.86a20,20,0,0,0,1.93,1.19c.38.22.79.41,1.19.6s.82.36,1.23.54c.65.27,1.3.53,2,.76a5.28,5.28,0,0,0,1.32.4c.23.17.51.14.76.23s.77.18,1.16.29a6.52,6.52,0,0,1,1.08.25c.2,0,.37.07.56.08a6.7,6.7,0,0,1,.9.1,1.34,1.34,0,0,0,.52.07c.19,0,.34.08.52.09a2.7,2.7,0,0,1,1,.08,12.25,12.25,0,0,1,1.71.09c.57,0,1.14-.12,1.71-.08s1.16-.14,1.75-.09h.08c.15-.16.34-.08.52-.08a5,5,0,0,1,.56-.1,1.38,1.38,0,0,0,.71-.1c.2-.12.4,0,.6-.12a1.38,1.38,0,0,1,.59-.11,5.8,5.8,0,0,0,.94-.19c.26-.08.54-.13.8-.22a6.48,6.48,0,0,1,.82-.26c.62-.11,1.17-.42,1.79-.53.81-.39,1.65-.72,2.47-1.1a20.71,20.71,0,0,0,2.55-1.35c.23-.15.46-.3.71-.43a9.42,9.42,0,0,0,1.39-.94l1.27-1c.47-.35.88-.77,1.35-1.13a7.43,7.43,0,0,0,.93-.93c.28-.31.63-.56.91-.88s.79-.93,1.2-1.38.69-.92,1.07-1.35a3.92,3.92,0,0,0,.32-.53l-.19-.1.19-.27c.26-.45.57-.86.84-1.31s.54-.88.79-1.33.38-.63.55-1c.37-.7.72-1.4,1-2.12.22-.5.43-1,.61-1.5s.28-.84.41-1.27.25-.7.33-1,.22-.82.33-1.23.18-.88.28-1.33a2.58,2.58,0,0,1,.08-.26,1.93,1.93,0,0,1,0-.34,9.75,9.75,0,0,0,.24-1.22c.05-.21.07-.45.1-.68a1.79,1.79,0,0,1,.08-.69c0-.56.09-1.11.09-1.66,0-.82,0-1.65,0-2.47M1.63,26,1.57,26a.21.21,0,0,1,0-.07l.07,0,0,.11m.06-.43a.35.35,0,0,1,0-.11s0,0,.06,0a.74.74,0,0,1,0,.12s0,0-.05,0m.41-1.7v-.22h0l0,.23H2.1m.13-.41h0v-.17h0ZM31.76,2.66a1.52,1.52,0,0,1,.82,0Zm1.71.09V2.69l.31,0v.08Zm4.17,1.72V4.39h.23v0l-.22,0m.36.09,0-.07.07,0s.05,0,.07.06l-.11,0m.88-2.78c.2-.11.3,0,.45.09-.2.11-.3,0-.45-.09m5.59,8.45,0,0,0,0,.06,0,0,0M48,12.79c.19,0,.23.07.25.26L48,12.79m.47-7.23-.05,0,0,0s0,0,0,0,0,0,0,0" transform="translate(-1.23 -0.28)"/><path class="cls-1" d="M3,23l0,0s0,0,0,0S3,23,3,23Z" transform="translate(-1.23 -0.28)"/><path class="cls-1" d="M44.2,10h0v0" transform="translate(-1.23 -0.28)"/><path class="cls-1" d="M53.17,19.59a.45.45,0,0,0,0-.1v.09h0" transform="translate(-1.23 -0.28)"/><path class="cls-1" d="M35.87,7.07a3.79,3.79,0,0,0-1.14-.23c-.06,0-.12,0-.19,0H33.8c-.32.24-.69.1-1,.14-.21-.16-.46-.07-.69-.09h-.78a.6.6,0,0,0,.45.25c.29,0,.57,0,.85,0a4.17,4.17,0,0,0,.86.08.8.8,0,0,1,.5.11,1,1,0,0,0,.58.15.89.89,0,0,1,.46,0,1.6,1.6,0,0,0,.61.07l.6.08s0,0,.07-.06l-.1-.17.26,0c-.15-.21-.37-.19-.56-.26" transform="translate(-1.23 -0.28)"/><path class="cls-1" d="M17.6,7.16a1.25,1.25,0,0,1-.34.19,3.13,3.13,0,0,0-.32.15l-1.36.84c.08.05.16.12.22.11a1.35,1.35,0,0,0,.46-.11,10.15,10.15,0,0,0,1-.66,1.55,1.55,0,0,1,.63-.31c.29,0,.32-.22.4-.42a.74.74,0,0,0-.73.21" transform="translate(-1.23 -0.28)"/><path class="cls-1" d="M45.75,12.81a6.35,6.35,0,0,0-1.15-.9c-.35-.23-.69-.5-1.06-.7-.19-.11-.39-.3-.66-.16a1.41,1.41,0,0,0,.51.35,2.46,2.46,0,0,1,.59.4,20.43,20.43,0,0,1,1.68,1.26.45.45,0,0,0,.44.14c0-.22-.23-.26-.35-.39" transform="translate(-1.23 -0.28)"/><path class="cls-1" d="M2.26,25.22c-.06.1-.11.2-.18.31l.27.15a1.31,1.31,0,0,0-.09.34,1.24,1.24,0,0,1-.09.38c0,.13,0,.27-.08.39a.36.36,0,0,0,0,.29c0,.11.09.21.23.14a4.48,4.48,0,0,1,.11-.76c.13-.37.1-.76.24-1.13,0,0-.07-.14-.14-.28,0,.32-.14.23-.27.17" transform="translate(-1.23 -0.28)"/><path class="cls-1" d="M53.08,23a11.17,11.17,0,0,0-.59-1.44s-.09-.05-.17-.09a.69.69,0,0,0,0,.26,9.93,9.93,0,0,0,.76,1.68,1.08,1.08,0,0,0,0-.41" transform="translate(-1.23 -0.28)"/><path class="cls-1" d="M14,9.82a1,1,0,0,1-.25.14,1.59,1.59,0,0,0-.68.52.61.61,0,0,0-.07.25l.1,0a9.22,9.22,0,0,0,.78-.62c.07-.07.21-.19.12-.34" transform="translate(-1.23 -0.28)"/><path class="cls-1" d="M15,8.79a1.82,1.82,0,0,0-.67.65c-.07.11-.11.18,0,.29s.21,0,.4-.23a.18.18,0,0,0,0-.09s0,0-.05-.05c.1-.19.42-.26.31-.57" transform="translate(-1.23 -0.28)"/><path class="cls-1" d="M38.42,7.86,38.8,8a2.55,2.55,0,0,0-1.53-.53c0,.22.18.22.29.25.28.07.57.11.86.17" transform="translate(-1.23 -0.28)"/><path class="cls-1" d="M19,7.69l.34-.23-.28-.28-.39.17a.14.14,0,0,0-.05.1.17.17,0,0,0,.08.07c.2-.11.12.2.3.17" transform="translate(-1.23 -0.28)"/><path class="cls-1" d="M2.63,24.87a.89.89,0,0,0,.23-.94,1.07,1.07,0,0,0-.23.94" transform="translate(-1.23 -0.28)"/><path class="cls-1" d="M45.36,49.6c.4,0,.55-.29.76-.55l-.52.21c-.17,0-.16.21-.24.34" transform="translate(-1.23 -0.28)"/><path class="cls-1" d="M16.63,9a1.6,1.6,0,0,0,.84-.51c-.4-.06-.6.16-.84.51" transform="translate(-1.23 -0.28)"/><path class="cls-1" d="M53.91,21.9l.18.52c.12.36.12.36.3.47-.17-.34-.13-.73-.48-1" transform="translate(-1.23 -0.28)"/><path class="cls-1" d="M1.51,28.18a.42.42,0,0,0,0-.6c-.23.3-.23.42,0,.6" transform="translate(-1.23 -0.28)"/><path class="cls-1" d="M12.24,11.32l-.49.42c.4,0,.46,0,.49-.42" transform="translate(-1.23 -0.28)"/><path class="cls-1" d="M18,8.22c.32-.13.32-.13.49-.34-.34,0-.34,0-.49.34" transform="translate(-1.23 -0.28)"/><path class="cls-1" d="M50,45.53c.2-.1.34-.2.35-.42-.31.15-.31.15-.35.42" transform="translate(-1.23 -0.28)"/><path class="cls-1" d="M54.63,23.59c0-.16-.06-.27-.1-.38s-.12-.05-.13,0,0,.35.23.41" transform="translate(-1.23 -0.28)"/><path class="cls-1" d="M52.69,41.17l.22-.11v-.28l-.07,0c-.06.11-.12.23-.17.34s0,0,0,.07" transform="translate(-1.23 -0.28)"/><path class="cls-1" d="M15.29,8.89s0,0,0,.23l.28-.29a.22.22,0,0,0-.31.06" transform="translate(-1.23 -0.28)"/><path class="cls-1" d="M48.32,46.83l.14.14c.08-.09.16-.18.25-.3-.24-.11-.26.12-.39.16" transform="translate(-1.23 -0.28)"/><path class="cls-1" d="M19.12,5.65l-.23.28.05.05.33-.19-.15-.14" transform="translate(-1.23 -0.28)"/><path class="cls-1" d="M54,26.41c0,.28,0,.28.11.31,0-.28,0-.28-.11-.31" transform="translate(-1.23 -0.28)"/><path class="cls-1" d="M48,47.24c-.1,0-.19.18-.18.31l.33-.2c-.06-.05-.11-.11-.15-.11" transform="translate(-1.23 -0.28)"/><path class="cls-1" d="M19.92,6.82c-.17,0-.27.1-.21.29.14,0,.24-.08.21-.29" transform="translate(-1.23 -0.28)"/><path class="cls-1" d="M46.8,11.94c.07.14.15.27.34.26-.08-.14-.16-.27-.34-.26" transform="translate(-1.23 -0.28)"/><path class="cls-1" d="M51.36,43h.27v-.28l-.27.28" transform="translate(-1.23 -0.28)"/><path class="cls-1" d="M50.33,44.73l.22-.31c-.28.08-.28.08-.22.31" transform="translate(-1.23 -0.28)"/><path class="cls-1" d="M46.12,11.43c-.08-.14-.16-.27-.34-.25.07.13.15.26.34.25" transform="translate(-1.23 -0.28)"/><path class="cls-1" d="M50.79,44.12l.09-.17s-.08-.05-.11,0-.05.1-.06.16,0,0,0,.08l0,0" transform="translate(-1.23 -0.28)"/><path class="cls-1" d="M50,45l0,.05s0,0,.05,0,.17.06.21-.06a.12.12,0,0,0,0-.08c-.09-.08-.14,0-.2.06" transform="translate(-1.23 -0.28)"/><path class="cls-1" d="M51.09,43.64l.14-.24c-.27,0-.15.14-.14.24" transform="translate(-1.23 -0.28)"/><path class="cls-1" d="M46.71,11.86a.2.2,0,0,0-.25-.17.21.21,0,0,0,.25.17" transform="translate(-1.23 -0.28)"/><path class="cls-1" d="M45.78,11.18a.21.21,0,0,0-.26-.17.22.22,0,0,0,.26.17" transform="translate(-1.23 -0.28)"/><path class="cls-1" d="M46.37,11.6a.21.21,0,0,0-.25-.17.2.2,0,0,0,.25.17" transform="translate(-1.23 -0.28)"/><path class="cls-1" d="M51.3,44.38s0,0,0,0a.61.61,0,0,0,0,.11s0,0,.07,0,0-.09,0-.12" transform="translate(-1.23 -0.28)"/><path class="cls-1" d="M53.86,21.84l0,.05h0s0-.05,0-.07l0,0" transform="translate(-1.23 -0.28)"/><path class="cls-1" d="M55,25.17l0-.05,0,0a4,4,0,0,0,0-.43,1.91,1.91,0,0,0-.1-.34c0,.25-.15.52.13.79h0l0,0h0l0,0,0,0" transform="translate(-1.23 -0.28)"/><path class="cls-1" d="M49.05,46.46l0,0,0,0,0-.06,0,0" transform="translate(-1.23 -0.28)"/><path class="cls-2" d="M23,18.18l0-2.34s-.2-1.23-1.3-1.13a2.52,2.52,0,0,0-1.59.78l0-3-1.48,1.23a.49.49,0,0,1,.67.52c0,.73,0,4,0,4a.85.85,0,0,1-.85.73c-.75,0-1-.32-1-.82s0-2.8,0-2.8-.05-.19.29-.19h.47V14.8h-.76v-.89l-1.27,1.14h.41L16.62,18s0,1.14,1.08,1.12,6.19,0,6.19,0-.91-.1-.9-.9M22.15,18s0,1-.84,1-1.14-.31-1.14-.84v-2a.89.89,0,0,1,.56-.77c.58-.32,1.41-.34,1.42.39Z" transform="translate(-1.23 -0.28)"/><path class="cls-2" d="M27.37,17.66a1.59,1.59,0,0,1-1.46,1.1c-1.12,0-1.41-1.3-1.41-1.86a4,4,0,0,1,.13-.74h2.76a1.6,1.6,0,0,0-1.71-1.44,1.94,1.94,0,0,0-2,2.2,2,2,0,0,0,2.07,2.28,2,2,0,0,0,1.86-1.41ZM25.8,15c.78,0,.95.8.61.88H24.72S25,15,25.8,15" transform="translate(-1.23 -0.28)"/><path class="cls-2" d="M14,23.4H5.27c2.9.5,2.61,2.75,2.61,2.75s.07,9.39,0,11.37-2.61,2.23-2.61,2.23h7.52c-2.8-.47-2.58-2.42-2.58-2.42l0-5.53h4.34s4.19,0,4.19-4.19S14,23.4,14,23.4m.1,7.74-3.78.14V24.09h3.78c.34,0,2.39.25,2.39,3.49s-2.39,3.56-2.39,3.56" transform="translate(-1.23 -0.28)"/><path class="cls-2" d="M24.55,27.49A4.89,4.89,0,0,0,20.4,29v3h.5c.29-3.56,2.27-3.84,3.1-3.93s2.54.66,2.54,1.74.12,1.94-3,3.23-4.31,2.64-4.28,4,.85,3,3.49,3a6.2,6.2,0,0,0,4.18-1.64l1.45,1.45h.41V30.41c-.06-1.95-1.35-2.77-4.22-2.92M26.6,37.84a4,4,0,0,1-2.86,1.29,2.24,2.24,0,0,1-2.24-2.4c0-.84.38-1.82,3.09-3.33a13.33,13.33,0,0,0,2-1.32Z" transform="translate(-1.23 -0.28)"/><path class="cls-2" d="M32,28.46H30.91V28l3.43-2.8v2.52l2.2,0v.69H34.3l0,8s-.31,2.71,2.27,2.68h.94v.56a11.65,11.65,0,0,1-2.42.16,3.1,3.1,0,0,1-3-3.4c-.06-2.83,0-8,0-8" transform="translate(-1.23 -0.28)"/><path class="cls-2" d="M39.68,30.7l3.9-3.24V37s0,1.68,1,2.15,1.53.6,1.62.68H38.54s.65-.23,1-.31a2.13,2.13,0,0,0,1.76-2.08l0-5.84s0-.9-.8-.91Z" transform="translate(-1.23 -0.28)"/><path class="cls-2" d="M44.06,25.71a1.53,1.53,0,1,1-1.52-1.52,1.52,1.52,0,0,1,1.52,1.52" transform="translate(-1.23 -0.28)"/><path class="cls-2" d="M52.52,27.27a5.92,5.92,0,0,0-6.07,6.29,6.07,6.07,0,1,0,12.13,0,5.92,5.92,0,0,0-6.06-6.29m.26,11.87c-2.28,0-3.85-2-3.85-5.62,0-3.11,1.15-5.53,3.1-5.53,2.88,0,3.91,2.19,3.91,5.58,0,2.67-.62,5.57-3.16,5.57" transform="translate(-1.23 -0.28)"/><path class="cls-3" d="M25.63,46.68V44h1a.7.7,0,0,1,.74.73.69.69,0,0,1-.15.44.78.78,0,0,1,.29.28.72.72,0,0,1,.11.41.79.79,0,0,1-.12.42.76.76,0,0,1-.31.28,1,1,0,0,1-.44.1Zm.54-1.61h.37a.25.25,0,0,0,.2-.09.27.27,0,0,0,.08-.19.3.3,0,0,0-.08-.2.25.25,0,0,0-.21-.08h-.36Zm0,1.13h.52a.4.4,0,0,0,.27-.09.28.28,0,0,0,.1-.23.3.3,0,0,0-.1-.24.4.4,0,0,0-.27-.08h-.52Z" transform="translate(-1.23 -0.28)"/><polygon class="cls-3" points="27.09 46.4 27.09 43.74 29.02 43.74 28.76 44.23 27.62 44.23 27.62 44.79 28.49 44.79 28.49 45.27 27.62 45.27 27.62 45.92 28.86 45.93 29.12 46.4 27.09 46.4"/><polygon class="cls-3" points="29.54 46.4 29.54 43.74 30.08 43.74 30.08 45.92 31.22 45.92 31.22 46.4 29.54 46.4"/><polygon class="cls-3" points="31.89 46.4 31.89 43.74 32.43 43.74 32.43 45.92 33.57 45.92 33.57 46.4 31.89 46.4"/><path class="cls-3" d="M35.22,46.68l1.56-2.74,1.53,2.74h-.62l-.24-.44H36.09l-.24.44Zm1.14-.93h.83L36.78,45Z" transform="translate(-1.23 -0.28)"/><path class="cls-4" d="M44.25,42.2a1,1,0,0,1-.6.42,2,2,0,0,1-.35,0q-6.64,0-13.28,0c-2.52,0-5,0-7.54,0-.17,0-.34,0-.49-.2.05-.08.08-.18.13-.21a.52.52,0,0,1,.25,0h8.39c1.59,0,3.19,0,4.78,0,2.74-.1,5.48,0,8.21-.06a.83.83,0,0,1,.5.06" transform="translate(-1.23 -0.28)"/><path class="cls-4" d="M53.91,18.77a1.15,1.15,0,0,1-.69.41c-.13,0-.27,0-.41,0l-15.39,0c-2.92,0-5.83,0-8.75,0-.19,0-.38,0-.56-.2.05-.07.09-.18.15-.21a.67.67,0,0,1,.28,0h9.73c1.85,0,3.7,0,5.55,0,3.17-.1,6.34,0,9.52-.06a1.08,1.08,0,0,1,.57.07" transform="translate(-1.23 -0.28)"/></svg>