<svg id="Layer_1" data-name="Layer 1" xmlns="http://www.w3.org/2000/svg" viewBox="0 0 63.98 48.57"><defs><style>.cls-1{fill:#fff;}.cls-1,.cls-2{fill-rule:evenodd;}.cls-2{fill:#bf4b47;}</style></defs><title>villa</title><path class="cls-1" d="M0,41.18a4.18,4.18,0,0,0,1.21-.28A3.54,3.54,0,0,0,3.53,38a6.52,6.52,0,0,0,0-.77V37h.49v4.15H7.27v.44H4.06v8.23A2.59,2.59,0,0,0,4.29,51a1.24,1.24,0,0,0,1,.75,2.44,2.44,0,0,0,1-.07,3.79,3.79,0,0,0,2-1.42,8,8,0,0,0,.85-1.54,1.65,1.65,0,0,0,.14-.7V32.54a7.34,7.34,0,0,0,0-.81.55.55,0,0,0-.45-.53V31l.33-.11,1.72-.5a2.27,2.27,0,0,1,.3-.06V43.75h0s.05-.09.07-.14a4.24,4.24,0,0,1,.86-1.28,3.55,3.55,0,0,1,1.74-.92,4.06,4.06,0,0,1,2.16.06,2.35,2.35,0,0,1,1.69,1.85,7.1,7.1,0,0,1,.14,1.38v7.85H15.89v-8.2a4.93,4.93,0,0,0-.15-1.2l-.09-.3a1.19,1.19,0,0,0-1-.81A2.64,2.64,0,0,0,12,43.11a3.48,3.48,0,0,0-.65,1.5l-.15.89a1.83,1.83,0,0,0,0,.33v6.74H9.3V49.41h0l-.06.13c-.18.36-.34.73-.54,1.07a4.38,4.38,0,0,1-2.16,1.87,4.19,4.19,0,0,1-1,.23H4.89a3.51,3.51,0,0,1-1.48-.49,2.41,2.41,0,0,1-.84-.84,3,3,0,0,1-.38-1.17,9.67,9.67,0,0,1-.09-1.42V41.63H0Z" transform="translate(0 -4.12)"/><path class="cls-2" d="M34.67,17.11l.65.64,5.27,5.05,1.34,1.28a.62.62,0,0,1,.16.86l-1.75,3.78a.6.6,0,0,1-.44.39.56.56,0,0,1-.63-.29c-.15-.26-.29-.53-.44-.8l-.65-1.18c-.08-.15-.15-.3-.23-.44-.2-.37-.4-.73-.61-1.09a1.47,1.47,0,0,0-.1-.22l-1-1.87c-.08-.15-.18-.3-.26-.45l-.65-1.21-.11-.21c-.3-.55-.59-1.1-.9-1.65-.11-.21-.23-.42-.35-.63s-.37-.71-.59-1.11l-.57,1.12a2.25,2.25,0,0,0-.12.21c-.38.7-.75,1.41-1.12,2.11l-.09.22-.63,1.2c-.17.31-.35.62-.51.94l-.84,1.6-.8,1.53L28,28.16c-.13.24-.26.47-.38.71a.55.55,0,0,1-.54.34.59.59,0,0,1-.53-.36c-.61-1.29-1.23-2.57-1.85-3.85a.6.6,0,0,1,.14-.76l5.51-5.42L32,17.21a.22.22,0,0,0,.06-.12l-.19,0-4.46,1.3L22.2,19.94a.6.6,0,0,1-.79-.27L19,16.24a.64.64,0,0,1,0-.77.54.54,0,0,1,.46-.2l1.53,0h.74l1.75,0,1.17,0,1.71,0,1.37,0,1.54,0h1.28a3.81,3.81,0,0,0,1.24,0l-.41-.64c-.08-.13-.17-.25-.26-.38l-.05-.06h0A.58.58,0,0,0,31,14.3l-1.32-2.08a.38.38,0,0,0-.1-.12L28.87,11a1,1,0,0,0-.1-.17C28.4,10.18,28,9.59,27.65,9l-.31-.47-.05,0h0s0-.06,0-.08l-.87-1.37L25.36,5.36,25.2,5.1a.53.53,0,0,1,0-.6.58.58,0,0,1,.54-.27l1.69.13L29,4.47l1.15.09a.59.59,0,0,1,.52.46c.11.45.23.89.34,1.33.78,3,1.56,6,2.33,9a.58.58,0,0,0,.1.19c0-.18.1-.35.14-.53Q34.75,10.06,36,5.14A.83.83,0,0,1,36,5a.56.56,0,0,1,.54-.46l2.06-.19,2-.18a.13.13,0,0,0,.07,0H41a.41.41,0,0,0,.11.07.58.58,0,0,1,.26.84l-.45.72L40.22,7c-.12.2-.25.39-.37.58s-.36.61-.54.91l-.1.14-1.33,2.18-.08.16c-.23.38-.47.76-.71,1.14l-1.4,2.28s0,.06,0,.09h0l-.09.05c-.1.18-.22.34-.32.52a3.28,3.28,0,0,0-.31.56l1.24-.05h.15l2.33-.09.36,0,1.37,0,2.67-.1.2,0L45,15.17l1.47-.05.78,0a.56.56,0,0,1,.55.29.58.58,0,0,1,0,.64c-.49.7-1,1.41-1.45,2.12L45.4,19.5a.6.6,0,0,1-.82.29l-7.44-2.05-2.33-.64-.11,0h-.05l0,0M31,19.79l-.12.1-1.57,1.54-2.86,2.82-.58.57,1.21,2.52.17-.3L31,20a1.63,1.63,0,0,0,.09-.19l0-.07-.06,0m4.68-.05-.06,0,0,.06.09.2L39.61,27c0,.07.08.14.13.23l1.19-2.55-.18-.15-3.63-3.47-1.41-1.34m10.48-3.46-8.61.34v0l7,1.94,1.58-2.32m-17,.42v0l-8.61-.22,1.61,2.29,7-2M26.8,5.47c1.54,2.44,3.06,4.85,4.57,7.26l.05,0-1.83-7L26.8,5.47m8.47,7.27c.2-.22,4.45-7.18,4.49-7.34L37,5.65c-.58,2.37-1.15,4.71-1.74,7.09" transform="translate(0 -4.12)"/><path class="cls-1" d="M54.38,52.7H52.55c0-.07,0-.13,0-.2V32.91c0-.34,0-.68,0-1a.86.86,0,0,0-.06-.23.45.45,0,0,0-.32-.31l-.08,0v-.23l.09,0,2-.6a1.9,1.9,0,0,1,.25,0V52.7" transform="translate(0 -4.12)"/><path class="cls-1" d="M50.24,52.7H48.41c0-.07,0-.13,0-.2V32.7c0-.27,0-.54,0-.81v0c-.05-.26-.15-.48-.45-.53v-.25L48,31l2-.58.24-.05a.6.6,0,0,1,0,.12v22a1.34,1.34,0,0,1,0,.2" transform="translate(0 -4.12)"/><path class="cls-1" d="M24.83,52.7h-.69a4.41,4.41,0,0,1-2.69-1.18,5.1,5.1,0,0,1-1.24-1.87,6.25,6.25,0,0,1-.42-2.26,8,8,0,0,1,.54-3.06,4.45,4.45,0,0,1,1.09-1.65,4.53,4.53,0,0,1,2.22-1.15,5.21,5.21,0,0,1,3,.22,2.77,2.77,0,0,1,1.83,2.36,2.12,2.12,0,0,1-.85,2.07,3.6,3.6,0,0,1-1.27.63c-.57.18-1.15.33-1.73.49a7.07,7.07,0,0,0-1.42.51,2.65,2.65,0,0,0-.75.54,1.2,1.2,0,0,0-.33.64.79.79,0,0,0,.06.48c.09.21.2.42.31.62a4.52,4.52,0,0,0,.71.92,2.87,2.87,0,0,0,3.44.41A3.44,3.44,0,0,0,28,49.89l.07-.13,0,0,.44.18a4.44,4.44,0,0,1-3.73,2.79m-2.94-4.31h0a3.65,3.65,0,0,1,1.4-1.06A14.55,14.55,0,0,1,25,46.61a3.77,3.77,0,0,0,.76-.36,1.62,1.62,0,0,0,.67-.87A2.78,2.78,0,0,0,26.53,44a2.73,2.73,0,0,0-1-1.7,1.72,1.72,0,0,0-1.24-.43,1.9,1.9,0,0,0-1.23.56,3.46,3.46,0,0,0-.71,1.06,6.29,6.29,0,0,0-.5,2.26c0,.56,0,1.13,0,1.69,0,.33,0,.66,0,1" transform="translate(0 -4.12)"/><path class="cls-1" d="M38.58,52.69H36.81c-1-2.4-2-4.79-3.06-7.19-.19-.43-.41-.86-.63-1.27a7.16,7.16,0,0,0-1.27-1.72.63.63,0,0,1-.2-.32H34c1.24,2.8,2.44,5.62,3.66,8.45l.06,0a14.17,14.17,0,0,0,2.59-4.23,8,8,0,0,0,.52-2,4.1,4.1,0,0,0-.22-2.11,3.18,3.18,0,0,0-1-1.31,2.31,2.31,0,0,0-1.68-.45,1.59,1.59,0,0,0-.67.26l-.19-.25.09-.09A2,2,0,0,1,38.3,40a3.06,3.06,0,0,1,2.47,1.06,4.15,4.15,0,0,1,1.07,2.14,6.89,6.89,0,0,1,0,2.22,14,14,0,0,1-1.7,4.83,20.28,20.28,0,0,1-1.58,2.4" transform="translate(0 -4.12)"/><path class="cls-1" d="M64,44.66v.61q0,3.61,0,7.23v.19H62.09V50.88A.48.48,0,0,0,62,51a4.81,4.81,0,0,1-.6.75,3.28,3.28,0,0,1-1.8.89,4.63,4.63,0,0,1-.52.07h-.66c-.25-.05-.51-.07-.75-.14a1.93,1.93,0,0,1-1.36-1.32,3.09,3.09,0,0,1,0-1.83,1.88,1.88,0,0,1,.43-.78,4,4,0,0,1,1.33-1,19.61,19.61,0,0,1,2-.77,9.65,9.65,0,0,0,1.37-.57,3.3,3.3,0,0,0,.39-.26.89.89,0,0,0,.33-.73V43.88a3.57,3.57,0,0,0-.09-.8A1.43,1.43,0,0,0,61,42a3.15,3.15,0,0,0-1.22-.11,3.45,3.45,0,0,0-.89.19,2.7,2.7,0,0,0-1.39,1.19.57.57,0,0,1-.08.13h0l-.32-.16.07-.16a2.57,2.57,0,0,1,.5-.64,3.45,3.45,0,0,1,1.71-.87,6.38,6.38,0,0,1,2.18-.06,3.5,3.5,0,0,1,.94.28,2.44,2.44,0,0,1,1.43,1.89,5.34,5.34,0,0,1,.1,1m-1.89,1.56,0,0a1.63,1.63,0,0,1-.71.56l-.91.42a9,9,0,0,0-1.2.6,2.46,2.46,0,0,0-1.12,1.41,2.8,2.8,0,0,0,0,1.52,1.54,1.54,0,0,0,1.44,1.15,2.37,2.37,0,0,0,1.56-.48,4,4,0,0,0,.89-1,.46.46,0,0,0,.08-.28v-3.9Z" transform="translate(0 -4.12)"/><path class="cls-1" d="M45,15.17l-1.73.06a.1.1,0,0,1,0-.05,13.19,13.19,0,0,0,2.13-2.41,30.33,30.33,0,0,0,2.18-3.84s0-.06,0-.09l0,0h0v0l-.19.07-4.93,2.88a.71.71,0,0,0-.28.29l-1.75,3.08-.09.19-1.37,0c.43-.75.85-1.5,1.27-2.25a.65.65,0,0,0-.21.07l-3.72,2.18-.18.13L35,15.57a3.28,3.28,0,0,1,.31-.56c.1-.18.22-.34.32-.52l.09-.05h0l.12,0,3.8-2.22.12-.1H37.09c.24-.38.48-.76.71-1.14h.55l3.23,0a.66.66,0,0,0,.37-.1l5-2.93.2-.12-.37,0a29.47,29.47,0,0,0-3.64,0,13.86,13.86,0,0,0-2.57.38c-.42.11-.83.24-1.25.36.18-.3.35-.6.54-.91s.25-.38.37-.58c.4-.07.8-.16,1.2-.22.61-.08,1.23-.16,1.84-.2a30.55,30.55,0,0,1,4.17.06l1.37.1.3,0a.56.56,0,0,1,.46.79c-.05.14-.12.28-.18.42a41.23,41.23,0,0,1-2.29,4.43,16.33,16.33,0,0,1-2,2.68,1,1,0,0,0-.08.11" transform="translate(0 -4.12)"/><path class="cls-1" d="M30.83,22.82l.63-1.2,1.31,2.21a.2.2,0,0,0,0-.16c0-1,0-2,0-3,0-.55,0-1.09,0-1.64L33.36,18c.22.4.43.75.59,1.11,0,.06,0,.12,0,.18,0,1.49,0,3,0,4.49a.78.78,0,0,0,0,.13c.46-.79.89-1.55,1.32-2.31L36,22.77c-.64,1.12-1.28,2.23-1.91,3.35a.63.63,0,0,0-.06.27c0,.82,0,1.63,0,2.45,0,1.14,0,2.28,0,3.42a1.16,1.16,0,0,0,0,.17,1.37,1.37,0,0,0,.1-.14c.51-.84,1-1.66,1.52-2.52a14.31,14.31,0,0,0,1.44-3.45c.09-.33.16-.67.24-1,.21.36.41.72.61,1.09.08.14.15.29.23.44-.17.46-.32.93-.5,1.39a22.2,22.2,0,0,1-2,3.77c-.54.85-1.11,1.68-1.68,2.52a.51.51,0,0,1-.09.13.56.56,0,0,1-.9,0L33,34.59a41.72,41.72,0,0,1-2.92-4.5,16.76,16.76,0,0,1-1.37-3.2l.8-1.53a.41.41,0,0,1,0,.08,12.67,12.67,0,0,0,.83,2.62,27.27,27.27,0,0,0,2.43,4.23l.1.08v-.28c0-.67,0-1.35,0-2,0-1.22,0-2.44,0-3.66a.51.51,0,0,0-.06-.25l-2-3.33" transform="translate(0 -4.12)"/><path class="cls-1" d="M23.46,15.35l-1.75,0c-.31-.37-.64-.73-.94-1.11a22.14,22.14,0,0,1-2.39-3.81c-.43-.82-.83-1.66-1.24-2.5,0,0-.05-.1-.07-.16a.57.57,0,0,1,.48-.8c.47-.06.94-.11,1.41-.13,1.05-.07,2.09-.13,3.14-.16a15.82,15.82,0,0,1,2.66.14c.55.07,1.1.18,1.65.27l.87,1.37s0,.05,0,.08h-.09A14.2,14.2,0,0,0,23,7.8c-1.08,0-2.16,0-3.23.09l-.17,0,.15.1,5.06,2.88a.53.53,0,0,0,.29.08h1.49l2.31,0,.71,1.15-2.63,0,.12.08,3.85,2.19a.33.33,0,0,0,.13,0h0l.05.06c.09.13.18.25.26.38l.41.64a3.81,3.81,0,0,1-1.24,0l-.05,0q-1.95-1.12-3.92-2.23a.58.58,0,0,0-.14,0v0l0,0h0a1.76,1.76,0,0,0,.09.2l1.2,2.06-1.37,0-.05-.12c-.63-1.06-1.26-2.13-1.88-3.2a.67.67,0,0,0-.25-.22L19.16,9,19,9l0,0V9a29.6,29.6,0,0,0,1.61,2.92,15.16,15.16,0,0,0,2.22,2.82l.66.61" transform="translate(0 -4.12)"/><path class="cls-1" d="M46.07,52.69H44.22v-.18c0-3.07,0-6.13,0-9.2,0-.21,0-.41,0-.61l0-.18a.47.47,0,0,0-.36-.37l-.09,0V42l.75-.17,1.36-.32a1.56,1.56,0,0,1,.25,0V52.69" transform="translate(0 -4.12)"/><path class="cls-1" d="M45.08,39.32a1.1,1.1,0,1,1,1.11-1.1,1.1,1.1,0,0,1-1.11,1.1" transform="translate(0 -4.12)"/></svg>