<svg id="Layer_1" data-name="Layer 1" xmlns="http://www.w3.org/2000/svg" viewBox="0 0 988.03 352.02"><defs><style>.cls-1,.cls-2{fill:#fff;}.cls-2{font-size:85.24px;font-family:AmericanTypewriter, American Typewriter;}</style></defs><title>morven-logo</title><polygon class="cls-1" points="0 2.96 32.63 2.97 32.63 87.52 67.63 87.52 67.63 2.97 100.27 2.97 100.27 210.63 67.63 210.63 67.63 117.18 32.63 117.18 32.63 210.63 0 210.63 0 2.96"/><path class="cls-1" d="M157.8,343.3q-12.47-13.5-12.46-38.71V146.17H178V307q0,10.68,4.3,15.42t12.31,4.75q8,0,12.32-4.75T211.2,307V146.17h31.44V304.59q0,25.21-12.46,38.71T194,356.8q-23.73,0-36.19-13.5" transform="translate(-21.93 -143.2)"/><path class="cls-1" d="M275.87,343.3q-12.47-13.5-12.47-38.71V195.41q0-25.22,12.47-38.71t36.19-13.5q23.73,0,36.19,13.5t12.47,38.71v17.8H329.86V193.34q0-20.47-16.91-20.47T296,193.34V307q0,20.18,16.91,20.17T329.86,307V266.31H313.54V236.65h47.18v67.94q0,25.21-12.47,38.71t-36.19,13.5q-23.73,0-36.19-13.5" transform="translate(-21.93 -143.2)"/><path class="cls-1" d="M407,146.17h44.2L485,353.83H452.37l-5.93-41.24v.6H409.36l-5.93,40.64H373.17ZM442.58,285,428.05,182.36h-.59L413.22,285Z" transform="translate(-21.93 -143.2)"/><polygon class="cls-1" points="478.79 2.97 525.37 2.97 546.13 151.59 546.74 151.59 567.5 2.97 614.08 2.97 614.08 210.63 583.22 210.63 583.22 53.4 582.63 53.4 558.89 210.63 531.6 210.63 507.87 53.4 507.27 53.4 507.27 210.63 478.79 210.63 478.79 2.97"/><path class="cls-1" d="M685.54,146.17h44.2l33.82,207.66H730.93L725,312.59v.6H687.92L682,353.83H651.72ZM721.14,285,706.6,182.36H706L691.77,285Z" transform="translate(-21.93 -143.2)"/><path class="cls-1" d="M779.28,146.17h48.36q25.2,0,36.79,11.72t11.56,36v12.76q0,32.34-21.35,40.94v.59a25.47,25.47,0,0,1,16.75,14.53q4.9,11,4.9,29.37v36.5a138.16,138.16,0,0,0,.59,14.38,36,36,0,0,0,3,10.83H846.62a47.67,47.67,0,0,1-2.37-9.49,141.31,141.31,0,0,1-.6-16v-38q0-14.25-4.59-19.88t-15.87-5.64H811.92v89H779.28Zm44.5,89q9.79,0,14.68-5t4.9-16.92v-16q0-11.28-4-16.32t-12.61-5H811.92v59.34Z" transform="translate(-21.93 -143.2)"/><path class="cls-1" d="M924.05,146.17h44.2l33.82,207.66H969.44l-5.94-41.24v.6H926.43l-5.94,40.64H890.23ZM959.65,285,945.11,182.36h-.58L930.28,285Z" transform="translate(-21.93 -143.2)"/><text class="cls-2" transform="translate(537.11 320.91)">Call Center</text></svg>