<svg id="Layer_1" data-name="Layer 1" xmlns="http://www.w3.org/2000/svg" viewBox="0 0 992.64 379.4"><defs><style>.cls-1{fill:#046577;}</style></defs><title>hugamara-dark-logo</title><path class="cls-1" d="M74.29,60.48c-5.9,1-10.62,7.22-10.62,13.2V226.85a0,0,0,0,1-.05,0H43.76a12.79,12.79,0,0,0-2.41.22v-154a12.85,12.85,0,0,0-15.2-12.62c-5.82,1.06-10.47,7.29-10.47,13.2v268c0,6.17,4.13,11.84,10.18,13.05a12.85,12.85,0,0,0,15.49-12.57V252.34a13.67,13.67,0,0,0,2.41.21H63.62a.05.05,0,0,1,.05,0v43.29c0,6.17,4.13,11.84,10.17,13.05a12.85,12.85,0,0,0,15.5-12.56V73.13a12.85,12.85,0,0,0-15-12.65" transform="translate(-15.68 -60.3)"/><path class="cls-1" d="M73.85,330c-6,1.21-10.18,6.88-10.18,13.05v83.82a12.85,12.85,0,0,0,14,12.79c6.73-.61,11.65-6.7,11.65-13.46V342.56A12.84,12.84,0,0,0,73.85,330" transform="translate(-15.68 -60.3)"/><path class="cls-1" d="M25.86,375.77c-6.05,1.21-10.18,6.89-10.18,13v38.05a12.86,12.86,0,0,0,14,12.79c6.73-.61,11.65-6.7,11.65-13.46V388.34a12.84,12.84,0,0,0-15.48-12.57" transform="translate(-15.68 -60.3)"/><path class="cls-1" d="M207.64,159a12.85,12.85,0,0,0,15.49,12.57c6-1.21,10.17-6.89,10.17-13.06V73.13a12.8,12.8,0,0,0-12.83-12.82c-.44,0-.87,0-1.32.06h-.1c-.45,0-.88-.06-1.32-.06H127.24c-.44,0-.88,0-1.32.06h-.11c-.44,0-.88-.06-1.32-.06a12.81,12.81,0,0,0-12.83,12.82v177c0,6.17,4.13,11.84,10.18,13.06a12.85,12.85,0,0,0,15.48-12.57V86s0,0,.05,0h22.24a0,0,0,0,1,0,0V204.33c0,6.17,4.13,11.85,10.18,13a12.84,12.84,0,0,0,15.49-12.56V86a0,0,0,0,1,0,0h22.23s0,0,0,0Z" transform="translate(-15.68 -60.3)"/><path class="cls-1" d="M233.3,205.22a12.85,12.85,0,0,0-15.48-12.57c-6,1.21-10.18,6.88-10.18,13.06V426.86a12.85,12.85,0,0,0,14,12.79c6.73-.61,11.65-6.7,11.65-13.45Z" transform="translate(-15.68 -60.3)"/><path class="cls-1" d="M121.84,284.21c-6,1.21-10.18,6.88-10.18,13.05V426.87a12.85,12.85,0,0,0,14,12.78c6.73-.61,11.65-6.7,11.65-13.46V296.78a12.84,12.84,0,0,0-15.48-12.57" transform="translate(-15.68 -60.3)"/><path class="cls-1" d="M169.83,238.43c-6.05,1.21-10.18,6.88-10.18,13V426.87a12.85,12.85,0,0,0,14,12.78c6.73-.61,11.66-6.7,11.66-13.45V251a12.85,12.85,0,0,0-15.49-12.57" transform="translate(-15.68 -60.3)"/><polygon class="cls-1" points="246.83 219.13 271.66 219.13 271.66 283.46 298.3 283.46 298.3 219.13 323.13 219.13 323.13 377.14 298.3 377.14 298.3 306.04 271.66 306.04 271.66 377.14 246.83 377.14 246.83 219.13"/><path class="cls-1" d="M365.9,429.43q-9.48-10.28-9.49-29.46V279.43h24.83V401.77q0,8.13,3.28,11.74t9.36,3.62q6.11,0,9.37-3.62t3.28-11.74V279.43h23.93V400q0,19.18-9.49,29.46T393.43,439.7q-18.06,0-27.53-10.27" transform="translate(-15.68 -60.3)"/><path class="cls-1" d="M455.74,429.43q-9.48-10.28-9.49-29.46V316.9q0-19.18,9.49-29.46t27.53-10.27q18.06,0,27.54,10.27t9.49,29.46v13.54H496.82V315.32q0-15.57-12.86-15.58t-12.88,15.58v86.45q0,15.36,12.88,15.36t12.86-15.36V370.85H484.4V348.28h35.9V400q0,19.18-9.49,29.46T483.27,439.7q-18,0-27.53-10.27" transform="translate(-15.68 -60.3)"/><path class="cls-1" d="M555.51,279.43h33.63l25.73,158H590l-4.51-31.37v.45H557.32l-4.52,30.92h-23Zm27.08,105.64L571.53,307h-.45l-10.83,78.1Z" transform="translate(-15.68 -60.3)"/><polygon class="cls-1" points="611.16 219.13 646.6 219.13 662.4 332.22 662.86 332.22 678.65 219.13 714.1 219.13 714.1 377.14 690.62 377.14 690.62 257.5 690.17 257.5 672.11 377.14 651.34 377.14 633.28 257.5 632.83 257.5 632.83 377.14 611.16 377.14 611.16 219.13"/><path class="cls-1" d="M767.47,279.43H801.1l25.74,158H802l-4.51-31.37v.45H769.28l-4.52,30.92h-23Zm27.08,105.64L783.49,307h-.44l-10.84,78.1Z" transform="translate(-15.68 -60.3)"/><path class="cls-1" d="M838.8,279.43h36.79q19.18,0,28,8.92t8.8,27.42v9.71q0,24.6-16.25,31.15v.45a19.4,19.4,0,0,1,12.74,11.06q3.74,8.36,3.73,22.35v27.77a106.34,106.34,0,0,0,.45,10.94,27.24,27.24,0,0,0,2.26,8.24H890a35.79,35.79,0,0,1-1.81-7.22,109,109,0,0,1-.45-12.19V389.14q0-10.84-3.5-15.13t-12.07-4.29h-8.58v67.72H838.8Zm33.86,67.72q7.44,0,11.17-3.84t3.72-12.87V318.26q0-8.58-3-12.42T874.92,302H863.63v45.15Z" transform="translate(-15.68 -60.3)"/><path class="cls-1" d="M949,279.43h33.64l25.73,158H983.49L979,406.07v.45H950.76l-4.51,30.92h-23ZM976,385.07,965,307h-.44l-10.84,78.1Z" transform="translate(-15.68 -60.3)"/></svg>